<svg width="9" height="6" viewBox="0 0 9 6" fill="none" xmlns="http://www.w3.org/2000/svg">
<path d="M8.14626 0.658866C8.24056 0.567787 8.36686 0.51739 8.49796 0.518529C8.62906 0.519669 8.75447 0.572253 8.84717 0.664957C8.93987 0.757661 8.99246 0.883067 8.9936 1.01417C8.99474 1.14526 8.94434 1.27156 8.85326 1.36587L5.35326 4.86587C4.88267 5.33646 4.20963 4.5954 4.64621 4.15881C5.81287 2.99215 6.97959 1.82553 8.14626 0.658866ZM3.87326 2.93037C3.91944 2.97898 3.95538 3.03639 3.97892 3.09917C4.00246 3.16196 4.01314 3.22884 4.01031 3.29583C4.00748 3.36282 3.9912 3.42856 3.96245 3.48914C3.9337 3.54972 3.89305 3.60389 3.84294 3.64844C3.79282 3.69299 3.73425 3.727 3.67073 3.74845C3.6072 3.7699 3.54 3.77836 3.47314 3.77332C3.40627 3.76827 3.34111 3.74983 3.28152 3.71909C3.22193 3.68834 3.16913 3.64593 3.12626 3.59437L1.12626 1.34437C1.08008 1.29575 1.04415 1.23834 1.0206 1.17556C0.99706 1.11278 0.986386 1.0459 0.989215 0.978903C0.992044 0.911909 1.00832 0.846168 1.03707 0.785592C1.06583 0.725017 1.10647 0.670843 1.15659 0.626295C1.2067 0.581747 1.26527 0.547735 1.3288 0.526282C1.39233 0.504828 1.45952 0.496372 1.52639 0.501417C1.59325 0.506462 1.65842 0.524904 1.71801 0.555646C1.7776 0.586389 1.8304 0.628803 1.87326 0.680366L3.87326 2.93037Z" fill="#F1971E"/>
</svg>
