<svg width="9" height="6" viewBox="0 0 9 6" fill="none" xmlns="http://www.w3.org/2000/svg">
<path d="M7.15749 0.658866C7.25179 0.567787 7.37809 0.51739 7.50919 0.518529C7.64029 0.519669 7.7657 0.572253 7.8584 0.664957C7.95111 0.757661 8.00369 0.883067 8.00483 1.01417C8.00597 1.14526 7.95557 1.27156 7.86449 1.36587L4.36449 4.86587C3.8939 5.33646 3.22086 4.5954 3.65744 4.15881C4.82411 2.99215 5.99083 1.82553 7.15749 0.658866ZM2.88449 2.93037C2.93067 2.97898 2.96661 3.03639 2.99015 3.09917C3.01369 3.16196 3.02437 3.22884 3.02154 3.29583C3.01871 3.36282 3.00243 3.42856 2.97368 3.48914C2.94493 3.54972 2.90428 3.60389 2.85417 3.64844C2.80405 3.69299 2.74548 3.727 2.68196 3.74845C2.61843 3.7699 2.55123 3.77836 2.48437 3.77332C2.4175 3.76827 2.35234 3.74983 2.29275 3.71909C2.23316 3.68834 2.18036 3.64593 2.13749 3.59437L0.137492 1.34437C0.09131 1.29575 0.0553782 1.23834 0.0318344 1.17556C0.00829064 1.11278 -0.00238399 1.0459 0.000445327 0.978903C0.00327465 0.911909 0.0195503 0.846168 0.0483039 0.785592C0.0770575 0.725017 0.117702 0.670843 0.167818 0.626295C0.217935 0.581747 0.2765 0.547735 0.340029 0.526282C0.403558 0.504828 0.470753 0.496372 0.537617 0.501417C0.60448 0.506462 0.669646 0.524904 0.729237 0.555646C0.788828 0.586389 0.841627 0.628803 0.884492 0.680366L2.88449 2.93037Z" fill="#777777"/>
</svg>
