<svg width="18" height="18" viewBox="0 0 18 18" fill="none" xmlns="http://www.w3.org/2000/svg">
<path d="M13.7206 6.21315C13.8621 6.07653 14.0515 6.00093 14.2482 6.00264C14.4448 6.00435 14.6329 6.08323 14.772 6.22228C14.911 6.36134 14.9899 6.54945 14.9916 6.7461C14.9933 6.94274 14.9177 7.1322 14.7811 7.27365L9.53111 12.5236C8.82523 13.2295 7.81566 12.1179 8.47053 11.4631C10.2205 9.71307 11.9706 7.96315 13.7206 6.21315ZM7.31111 9.6204C7.38039 9.69332 7.43428 9.77943 7.4696 9.87361C7.50491 9.96778 7.52093 10.0681 7.51668 10.1686C7.51244 10.2691 7.48803 10.3677 7.4449 10.4586C7.40177 10.5494 7.3408 10.6307 7.26562 10.6975C7.19045 10.7643 7.1026 10.8153 7.00731 10.8475C6.91202 10.8797 6.81122 10.8924 6.71093 10.8848C6.61063 10.8773 6.51288 10.8496 6.4235 10.8035C6.33411 10.7574 6.25491 10.6937 6.19061 10.6164L3.19061 7.2414C3.12134 7.16847 3.06744 7.08236 3.03213 6.98819C2.99681 6.89401 2.9808 6.79369 2.98504 6.6932C2.98929 6.59271 3.0137 6.4941 3.05683 6.40324C3.09996 6.31237 3.16093 6.23111 3.2361 6.16429C3.31128 6.09747 3.39912 6.04645 3.49442 6.01427C3.58971 5.98209 3.6905 5.96941 3.7908 5.97697C3.8911 5.98454 3.98884 6.0122 4.07823 6.05832C4.16762 6.10443 4.24682 6.16805 4.31111 6.2454L7.31111 9.6204Z" fill="#333333"/>
</svg>
