<svg width="18" height="19" viewBox="0 0 18 19" fill="none" xmlns="http://www.w3.org/2000/svg">
<path d="M4.81197 10.25L8.78172 14.2197C8.91834 14.3612 8.99393 14.5506 8.99223 14.7473C8.99052 14.9439 8.91164 15.1321 8.77258 15.2711C8.63353 15.4102 8.44542 15.489 8.24877 15.4907C8.05212 15.4925 7.86267 15.4169 7.72122 15.2802L2.47122 10.0302C1.99872 9.55774 2.33322 8.74999 3.00147 8.74999H15.0015C15.2004 8.74999 15.3911 8.82901 15.5318 8.96966C15.6725 9.11032 15.7515 9.30108 15.7515 9.49999C15.7515 9.69891 15.6725 9.88967 15.5318 10.0303C15.3911 10.171 15.2004 10.25 15.0015 10.25H4.81197ZM7.75347 3.68974C7.82639 3.62047 7.9125 3.56657 8.00668 3.53126C8.10086 3.49594 8.20117 3.47993 8.30167 3.48417C8.40216 3.48842 8.50077 3.51283 8.59163 3.55596C8.68249 3.59909 8.76375 3.66006 8.83058 3.73523C8.8974 3.81041 8.94842 3.89825 8.9806 3.99355C9.01278 4.08884 9.02546 4.18963 9.01789 4.28993C9.01033 4.39023 8.98266 4.48797 8.93655 4.57736C8.89044 4.66675 8.82681 4.74595 8.74947 4.81024L5.37447 7.81024C5.22481 7.93465 5.03266 7.99602 4.83859 7.98138C4.64453 7.96674 4.46376 7.87724 4.33446 7.73178C4.20517 7.58632 4.13748 7.3963 4.14569 7.20186C4.1539 7.00742 4.23737 6.82378 4.37847 6.68974L7.75347 3.68974Z" fill="#F1971E"/>
</svg>
