<svg width="19" height="18" viewBox="0 0 19 18" fill="none" xmlns="http://www.w3.org/2000/svg">
<path d="M14.586 8L9.293 2.707C9.19749 2.61475 9.12131 2.50441 9.0689 2.3824C9.01649 2.2604 8.9889 2.12918 8.98775 1.9964C8.9866 1.86362 9.0119 1.73194 9.06218 1.60904C9.11246 1.48615 9.18671 1.37449 9.28061 1.2806C9.3745 1.18671 9.48615 1.11246 9.60905 1.06218C9.73194 1.01189 9.86362 0.986593 9.9964 0.987747C10.1292 0.988901 10.2604 1.01649 10.3824 1.0689C10.5044 1.1213 10.6148 1.19749 10.707 1.293L17.707 8.293C18.337 8.923 17.891 10 17 10H1C0.734784 10 0.48043 9.89464 0.292893 9.7071C0.105357 9.51957 0 9.26521 0 9C0 8.73478 0.105357 8.48043 0.292893 8.29289C0.48043 8.10535 0.734784 8 1 8H14.586ZM13.836 11.253C13.9332 11.1606 14.048 11.0888 14.1736 11.0417C14.2992 10.9946 14.4329 10.9732 14.5669 10.9789C14.7009 10.9846 14.8324 11.0171 14.9535 11.0746C15.0747 11.1321 15.183 11.2134 15.2721 11.3136C15.3612 11.4139 15.4293 11.531 15.4722 11.6581C15.5151 11.7851 15.532 11.9195 15.5219 12.0532C15.5118 12.187 15.4749 12.3173 15.4134 12.4365C15.352 12.5557 15.2671 12.6613 15.164 12.747L10.664 16.747C10.5668 16.8394 10.452 16.9112 10.3264 16.9583C10.2008 17.0054 10.0671 17.0268 9.93307 17.0211C9.79909 17.0154 9.6676 16.9829 9.54645 16.9254C9.4253 16.8679 9.31695 16.7866 9.22786 16.6863C9.13876 16.5861 9.07074 16.469 9.02783 16.3419C8.98492 16.2149 8.96801 16.0805 8.9781 15.9467C8.98819 15.813 9.02508 15.6827 9.08656 15.5635C9.14804 15.4443 9.23287 15.3387 9.336 15.253L13.836 11.253Z" fill="#F7F7F7"/>
</svg>
