<svg width="18" height="19" viewBox="0 0 18 19" fill="none" xmlns="http://www.w3.org/2000/svg">
<path d="M13.7362 7.4883C13.8777 7.35168 14.0671 7.27609 14.2638 7.27779C14.4604 7.2795 14.6485 7.35838 14.7876 7.49744C14.9267 7.63649 15.0055 7.8246 15.0072 8.02125C15.009 8.2179 14.9334 8.40735 14.7967 8.5488L9.54674 13.7988C8.84085 14.5047 7.83129 13.3931 8.48616 12.7382C10.2362 10.9882 11.9862 9.2383 13.7362 7.4883ZM7.32674 10.8955C7.39601 10.9685 7.44991 11.0546 7.48522 11.1488C7.52054 11.2429 7.53655 11.3433 7.53231 11.4437C7.52806 11.5442 7.50365 11.6428 7.46052 11.7337C7.41739 11.8246 7.35642 11.9058 7.28125 11.9727C7.20607 12.0395 7.11823 12.0905 7.02293 12.1227C6.92764 12.1549 6.82685 12.1675 6.72655 12.16C6.62626 12.1524 6.52851 12.1247 6.43912 12.0786C6.34973 12.0325 6.27054 11.9689 6.20624 11.8915L3.20624 8.51655C3.13697 8.44363 3.08307 8.35752 3.04775 8.26334C3.01244 8.16916 2.99642 8.06884 3.00067 7.96835C3.00491 7.86786 3.02933 7.76925 3.07246 7.67839C3.11559 7.58753 3.17655 7.50627 3.25173 7.43944C3.3269 7.37262 3.41475 7.3216 3.51004 7.28942C3.60534 7.25724 3.70613 7.24456 3.80642 7.25213C3.90672 7.25969 4.00447 7.28736 4.09386 7.33347C4.18324 7.37958 4.26244 7.4432 4.32674 7.52055L7.32674 10.8955Z" fill="#F1971E"/>
</svg>
