<svg width="18" height="18" viewBox="0 0 18 18" fill="none" xmlns="http://www.w3.org/2000/svg">
<path d="M3.53271 14.25H12.0002C12.1991 14.25 12.3899 14.329 12.5305 14.4697C12.6712 14.6103 12.7502 14.8011 12.7502 15C12.7502 15.1989 12.6712 15.3897 12.5305 15.5303C12.3899 15.671 12.1991 15.75 12.0002 15.75H2.25021C2.11927 15.75 1.9906 15.7158 1.87701 15.6507C1.76341 15.5856 1.66884 15.4918 1.6027 15.3788C1.53657 15.2658 1.50117 15.1375 1.50003 15.0065C1.49889 14.8756 1.53205 14.7466 1.59621 14.6325L8.34621 2.6325C8.41141 2.51636 8.50635 2.41967 8.62129 2.35238C8.73623 2.28509 8.86702 2.24963 9.00021 2.24963C9.1334 2.24963 9.26418 2.28509 9.37912 2.35238C9.49406 2.41967 9.58901 2.51636 9.65421 2.6325L16.4042 14.6325C16.5017 14.8059 16.5262 15.011 16.4725 15.2026C16.4188 15.3942 16.2912 15.5565 16.1177 15.654C15.9443 15.7515 15.7392 15.776 15.5476 15.7223C15.3561 15.6686 15.1937 15.5409 15.0962 15.3675L9.00021 4.53L3.53271 14.25ZM8.25021 8.25C8.25021 8.05108 8.32923 7.86032 8.46988 7.71967C8.61053 7.57901 8.8013 7.5 9.00021 7.5C9.19912 7.5 9.38989 7.57901 9.53054 7.71967C9.67119 7.86032 9.75021 8.05108 9.75021 8.25V10.5C9.75021 10.6989 9.67119 10.8897 9.53054 11.0303C9.38989 11.171 9.19912 11.25 9.00021 11.25C8.8013 11.25 8.61053 11.171 8.46988 11.0303C8.32923 10.8897 8.25021 10.6989 8.25021 10.5V8.25ZM9.00021 13.5C8.8013 13.5 8.61053 13.421 8.46988 13.2803C8.32923 13.1397 8.25021 12.9489 8.25021 12.75C8.25021 12.5511 8.32923 12.3603 8.46988 12.2197C8.61053 12.079 8.8013 12 9.00021 12C9.19912 12 9.38989 12.079 9.53054 12.2197C9.67119 12.3603 9.75021 12.5511 9.75021 12.75C9.75021 12.9489 9.67119 13.1397 9.53054 13.2803C9.38989 13.421 9.19912 13.5 9.00021 13.5Z" fill="url(#paint0_linear)"/>
<defs>
<linearGradient id="paint0_linear" x1="1.5" y1="15.7502" x2="17.5097" y2="14.4228" gradientUnits="userSpaceOnUse">
<stop offset="0.0297586" stop-color="#F7BB11"/>
<stop offset="1" stop-color="#F1971E"/>
</linearGradient>
</defs>
</svg>
