<svg width="86" height="84" viewBox="0 0 86 84" fill="none" xmlns="http://www.w3.org/2000/svg">
<path d="M1.825 40V1.7H40.125H78.425V40V42.2417C73.999 37.3651 67.6081 34.3 60.5 34.3C47.1347 34.3 36.3 45.1347 36.3 58.5C36.3 66.6864 40.3642 73.9211 46.5832 78.3H40.125H1.825V40Z" stroke="url(#paint0_linear)" stroke-width="3.4"/>
<path d="M21.5 13V28" stroke="#F1971E" stroke-width="3.4"/>
<path d="M29 20.5L14 20.5" stroke="#F1971E" stroke-width="3.4"/>
<path d="M67 20.5L52 20.5" stroke="#F1971E" stroke-width="3.4"/>
<path d="M26.8037 53.1968L16.1971 63.8034" stroke="#F1971E" stroke-width="3.4"/>
<path d="M26.8037 63.8033L16.1971 53.1967" stroke="#F1971E" stroke-width="3.4"/>
<circle cx="60.375" cy="58.5" r="23.8" stroke="#F1971E" stroke-width="3.4"/>
<path d="M55.511 58.3241L59.2096 54.5023C59.7765 53.9167 59.761 52.9823 59.1753 52.4154C58.5895 51.8483 57.6551 51.864 57.0882 52.4496L52.952 56.7237V53.476C52.952 52.6608 52.2911 52 51.476 52C50.6608 52 50 52.6608 50 53.476V63.1724C50 63.9875 50.6608 64.6483 51.476 64.6483C52.2911 64.6483 52.952 63.9875 52.952 63.1724V59.9246L57.0882 64.1987C57.3776 64.4979 57.7631 64.6483 58.149 64.6483C58.5186 64.6483 58.8887 64.5103 59.1753 64.233C59.761 63.6661 59.7763 62.7318 59.2096 62.146L55.511 58.3241Z" fill="url(#paint1_linear)"/>
<path d="M69.2521 57.2654H67.0365C66.2214 57.2654 65.5605 57.9262 65.5605 58.7414C65.5605 59.5565 66.2214 60.2174 67.0365 60.2174H67.7519C67.6112 61.0557 66.8805 61.6967 66.0026 61.6967C65.0247 61.6967 64.2291 60.901 64.2291 59.9231V56.7257C64.2291 55.7477 65.0247 54.9521 66.0026 54.9521C66.5528 54.9521 67.0629 55.2013 67.4022 55.6361C67.9037 56.2785 68.8313 56.3929 69.4738 55.8914C70.1163 55.3897 70.2307 54.4623 69.7292 53.8198C68.8267 52.6636 67.4684 52.0004 66.0027 52.0004C63.3972 52.0004 61.2773 54.1202 61.2773 56.7258V59.9232C61.2773 62.5288 63.3972 64.6486 66.0027 64.6486C68.6083 64.6486 70.7281 62.5288 70.7281 59.9232V58.7416C70.7281 57.9262 70.0673 57.2654 69.2521 57.2654Z" fill="url(#paint2_linear)"/>
<defs>
<linearGradient id="paint0_linear" x1="0.124999" y1="80" x2="85.6187" y2="73.6203" gradientUnits="userSpaceOnUse">
<stop offset="0.0297586" stop-color="#F7BB11"/>
<stop offset="1" stop-color="#F1971E"/>
</linearGradient>
<linearGradient id="paint1_linear" x1="50" y1="64.6483" x2="60.3099" y2="64.0629" gradientUnits="userSpaceOnUse">
<stop offset="0.0297586" stop-color="#F7BB11"/>
<stop offset="1" stop-color="#F1971E"/>
</linearGradient>
<linearGradient id="paint2_linear" x1="61.2773" y1="64.6486" x2="71.4019" y2="64.0841" gradientUnits="userSpaceOnUse">
<stop offset="0.0297586" stop-color="#F7BB11"/>
<stop offset="1" stop-color="#F1971E"/>
</linearGradient>
</defs>
</svg>
