<svg width="86" height="84" viewBox="0 0 86 84" fill="none" xmlns="http://www.w3.org/2000/svg">
<path d="M71.511 57.3266L70.6186 53.724L69.9665 52.6469L64.7145 52.6107L64.7145 50.1254C64.7145 49.5048 64.2143 49 63.5994 49H47.3407C46.7258 49 46.2256 49.5048 46.2256 50.1254V56.0001C46.2256 56.3008 46.4672 56.5447 46.7652 56.5447C47.0632 56.5447 47.3048 56.3009 47.3048 56.0001V50.1254C47.3048 50.1054 47.3209 50.0892 47.3407 50.0892H63.5993C63.6192 50.0892 63.6352 50.1054 63.6352 50.1254V59.0002C63.6352 59.301 63.8768 59.5448 64.1749 59.5448C64.4728 59.5448 64.7145 59.301 64.7145 59.0002V58.3829H71.0797L71.0811 58.383L71.0826 58.383C71.8658 58.3835 72.5309 58.9024 72.7594 59.6173L72.8442 60.0299V62.4259H71.4333C70.9698 61.0753 69.6976 60.1024 68.2037 60.1024C66.7098 60.1024 65.4375 61.0753 64.9741 62.4259H64.7143V59.3235C64.7143 59.0228 64.4728 58.7789 64.1747 58.7789C63.8767 58.7789 63.6351 59.0227 63.6351 59.3235V62.4257H56.9015C56.438 61.0751 55.1658 60.1023 53.6719 60.1023C52.178 60.1023 50.9058 61.0751 50.4424 62.4257H47.3407C47.3209 62.4257 47.3048 62.4095 47.3048 62.3895V56.0001H46.2256L46.2257 62.3895C46.2257 63.0101 46.7259 63.5149 47.3408 63.5149H50.2555C50.2554 63.527 50.2546 63.539 50.2546 63.5512C50.2546 65.4529 51.7876 67 53.6719 67C55.5562 67 57.0893 65.4529 57.0893 63.5512C57.0893 63.5389 57.0885 63.527 57.0883 63.5149H64.7873C64.7872 63.527 64.7863 63.539 64.7863 63.5512C64.7863 65.4529 66.3194 67 68.2037 67C70.088 67 71.621 65.4529 71.621 63.5512C71.621 63.5389 71.6202 63.527 71.6201 63.5149H73.3838C73.6817 63.5149 73.9234 63.2711 73.9234 62.9703V60.1617C73.9235 58.7276 72.875 57.5361 71.511 57.3266ZM64.7145 57.2938V53.736H69.5092L70.3905 57.2938H64.7145ZM53.6719 65.911C52.3826 65.911 51.3337 64.8525 51.3337 63.5513C51.3337 62.2501 52.3826 61.1916 53.6719 61.1916C54.9612 61.1916 56.0101 62.2501 56.0101 63.5513C56.0101 64.8525 54.9612 65.911 53.6719 65.911ZM68.2038 65.911C66.9146 65.911 65.8656 64.8525 65.8656 63.5513C65.8656 62.2501 66.9146 61.1916 68.2038 61.1916C69.4931 61.1916 70.542 62.2501 70.542 63.5513C70.542 64.8525 69.4931 65.911 68.2038 65.911Z" fill="url(#paint0_linear)"/>
<path d="M46.2256 56.0001V50.1254C46.2256 49.5048 46.7258 49 47.3407 49H63.5994C64.2143 49 64.7145 49.5048 64.7145 50.1254L64.7145 52.6107L69.9665 52.6469L70.6186 53.724L71.511 57.3266C72.875 57.5361 73.9235 58.7276 73.9234 60.1617V62.9703C73.9234 63.2711 73.6817 63.5149 73.3838 63.5149H71.6201C71.6202 63.527 71.621 63.5389 71.621 63.5512C71.621 65.4529 70.088 67 68.2037 67C66.3194 67 64.7863 65.4529 64.7863 63.5512C64.7863 63.539 64.7872 63.527 64.7873 63.5149H57.0883C57.0885 63.527 57.0893 63.5389 57.0893 63.5512C57.0893 65.4529 55.5562 67 53.6719 67C51.7876 67 50.2546 65.4529 50.2546 63.5512C50.2546 63.539 50.2554 63.527 50.2555 63.5149H47.3408C46.7259 63.5149 46.2257 63.0101 46.2257 62.3895L46.2256 56.0001ZM46.2256 56.0001C46.2256 56.3008 46.4672 56.5447 46.7652 56.5447C47.0632 56.5447 47.3048 56.3009 47.3048 56.0001M46.2256 56.0001H47.3048M47.3048 56.0001V50.1254C47.3048 50.1054 47.3209 50.0892 47.3407 50.0892H63.5993C63.6192 50.0892 63.6352 50.1054 63.6352 50.1254V59.0002C63.6352 59.301 63.8768 59.5448 64.1749 59.5448C64.4728 59.5448 64.7145 59.301 64.7145 59.0002V58.3829H71.0797L71.0811 58.383L71.0826 58.383C71.8658 58.3835 72.5309 58.9024 72.7594 59.6173L72.8442 60.0299V62.4259H71.4333C70.9698 61.0753 69.6976 60.1024 68.2037 60.1024C66.7098 60.1024 65.4375 61.0753 64.9741 62.4259H64.7143V59.3235C64.7143 59.0228 64.4728 58.7789 64.1747 58.7789C63.8767 58.7789 63.6351 59.0227 63.6351 59.3235V62.4257H56.9015C56.438 61.0751 55.1658 60.1023 53.6719 60.1023C52.178 60.1023 50.9058 61.0751 50.4424 62.4257H47.3407C47.3209 62.4257 47.3048 62.4095 47.3048 62.3895V56.0001ZM64.7145 57.2938V53.736H69.5092L70.3905 57.2938H64.7145ZM53.6719 65.911C52.3826 65.911 51.3337 64.8525 51.3337 63.5513C51.3337 62.2501 52.3826 61.1916 53.6719 61.1916C54.9612 61.1916 56.0101 62.2501 56.0101 63.5513C56.0101 64.8525 54.9612 65.911 53.6719 65.911ZM68.2038 65.911C66.9146 65.911 65.8656 64.8525 65.8656 63.5513C65.8656 62.2501 66.9146 61.1916 68.2038 61.1916C69.4931 61.1916 70.542 62.2501 70.542 63.5513C70.542 64.8525 69.4931 65.911 68.2038 65.911Z" stroke="url(#paint1_linear)" stroke-width="1.4"/>
<path d="M1.825 40V1.7H40.125H78.425V40V42.2417C73.999 37.3651 67.6081 34.3 60.5 34.3C47.1347 34.3 36.3 45.1347 36.3 58.5C36.3 66.6864 40.3642 73.9211 46.5832 78.3H40.125H1.825V40Z" stroke="url(#paint2_linear)" stroke-width="3.4"/>
<path d="M21.5 13V28" stroke="#F1971E" stroke-width="3.4"/>
<path d="M29 20.5L14 20.5" stroke="#F1971E" stroke-width="3.4"/>
<path d="M67 20.5L52 20.5" stroke="#F1971E" stroke-width="3.4"/>
<path d="M26.8037 53.1968L16.1971 63.8034" stroke="#F1971E" stroke-width="3.4"/>
<path d="M26.8037 63.8033L16.1971 53.1967" stroke="#F1971E" stroke-width="3.4"/>
<circle cx="60.375" cy="58.5" r="23.8" stroke="#F1971E" stroke-width="3.4"/>
<defs>
<linearGradient id="paint0_linear" x1="46.2256" y1="67" x2="75.6029" y2="63.6267" gradientUnits="userSpaceOnUse">
<stop offset="0.0297586" stop-color="#F7BB11"/>
<stop offset="1" stop-color="#F1971E"/>
</linearGradient>
<linearGradient id="paint1_linear" x1="46.2256" y1="67" x2="75.6029" y2="63.6267" gradientUnits="userSpaceOnUse">
<stop offset="0.0297586" stop-color="#F7BB11"/>
<stop offset="1" stop-color="#F1971E"/>
</linearGradient>
<linearGradient id="paint2_linear" x1="0.124999" y1="80" x2="85.6187" y2="73.6203" gradientUnits="userSpaceOnUse">
<stop offset="0.0297586" stop-color="#F7BB11"/>
<stop offset="1" stop-color="#F1971E"/>
</linearGradient>
</defs>
</svg>
