<svg width="24" height="24" viewBox="0 0 24 24" fill="none" xmlns="http://www.w3.org/2000/svg">
<path d="M5.247 18.27L5.94 16.884L3.22 6H2C1.73478 6 1.48043 5.89464 1.29289 5.70711C1.10536 5.51957 1 5.26522 1 5C1 4.73478 1.10536 4.48043 1.29289 4.29289C1.48043 4.10536 1.73478 4 2 4H4C4.22293 4.00001 4.43946 4.0745 4.61521 4.21166C4.79095 4.34881 4.91583 4.54075 4.97 4.757L6.03 9H20C20.1479 9.00009 20.2939 9.03298 20.4276 9.0963C20.5612 9.15963 20.6792 9.25181 20.7729 9.3662C20.8666 9.48059 20.9338 9.61435 20.9696 9.75784C21.0054 9.90133 21.009 10.051 20.98 10.196L19.98 15.196C19.9429 15.3815 19.854 15.5527 19.7236 15.6897C19.5931 15.8267 19.4265 15.9239 19.243 15.97L11.243 17.97C10.9865 18.0323 10.7157 17.9907 10.4898 17.8542C10.2638 17.7177 10.1011 17.4973 10.0369 17.2413C9.97275 16.9852 10.0125 16.7142 10.1474 16.4873C10.2823 16.2603 10.5014 16.096 10.757 16.03L18.144 14.183L18.78 11H6.53L7.97 16.757C8.02787 16.9887 8.00091 17.2335 7.894 17.447L6.894 19.447C6.84636 19.5431 6.78356 19.6309 6.708 19.707C7.01205 20.3436 7.08204 21.067 6.90566 21.75C6.72928 22.4331 6.31782 23.0322 5.74358 23.4419C5.16933 23.8517 4.46904 24.0461 3.76574 23.9907C3.06244 23.9354 2.40113 23.634 1.898 23.1395C1.39487 22.645 1.08211 21.989 1.01467 21.2868C0.947234 20.5845 1.12943 19.881 1.52926 19.2997C1.92908 18.7185 2.52095 18.2968 3.20087 18.1086C3.88079 17.9205 4.60526 17.978 5.247 18.271V18.27ZM4 22C4.26522 22 4.51957 21.8946 4.70711 21.7071C4.89464 21.5196 5 21.2652 5 21C5 20.7348 4.89464 20.4804 4.70711 20.2929C4.51957 20.1054 4.26522 20 4 20C3.73478 20 3.48043 20.1054 3.29289 20.2929C3.10536 20.4804 3 20.7348 3 21C3 21.2652 3.10536 21.5196 3.29289 21.7071C3.48043 21.8946 3.73478 22 4 22ZM18 24C17.2044 24 16.4413 23.6839 15.8787 23.1213C15.3161 22.5587 15 21.7956 15 21C15 20.2044 15.3161 19.4413 15.8787 18.8787C16.4413 18.3161 17.2044 18 18 18C18.7956 18 19.5587 18.3161 20.1213 18.8787C20.6839 19.4413 21 20.2044 21 21C21 21.7956 20.6839 22.5587 20.1213 23.1213C19.5587 23.6839 18.7956 24 18 24ZM18 22C18.2652 22 18.5196 21.8946 18.7071 21.7071C18.8946 21.5196 19 21.2652 19 21C19 20.7348 18.8946 20.4804 18.7071 20.2929C18.5196 20.1054 18.2652 20 18 20C17.7348 20 17.4804 20.1054 17.2929 20.2929C17.1054 20.4804 17 20.7348 17 21C17 21.2652 17.1054 21.5196 17.2929 21.7071C17.4804 21.8946 17.7348 22 18 22Z" fill="#333333"/>
</svg>
