<svg width="24" height="24" viewBox="0 0 24 24" fill="none" xmlns="http://www.w3.org/2000/svg">
<path d="M12 10.586L14.293 8.293C14.4816 8.11084 14.7342 8.01005 14.9964 8.01233C15.2586 8.0146 15.5094 8.11977 15.6948 8.30518C15.8802 8.49059 15.9854 8.7414 15.9877 9.0036C15.99 9.2658 15.8892 9.5184 15.707 9.707L9.707 15.707C9.61475 15.8025 9.50441 15.8787 9.3824 15.9311C9.2604 15.9835 9.12918 16.0111 8.9964 16.0123C8.86362 16.0134 8.73194 15.9881 8.60905 15.9378C8.48615 15.8875 8.3745 15.8133 8.28061 15.7194C8.18671 15.6255 8.11246 15.5139 8.06218 15.391C8.0119 15.2681 7.9866 15.1364 7.98775 15.0036C7.9889 14.8708 8.01649 14.7396 8.0689 14.6176C8.12131 14.4956 8.19749 14.3852 8.293 14.293L10.586 12L8.293 9.707C8.11084 9.5184 8.01005 9.2658 8.01233 9.0036C8.01461 8.7414 8.11977 8.49059 8.30518 8.30518C8.49059 8.11977 8.7414 8.0146 9.0036 8.01233C9.2658 8.01005 9.5184 8.11084 9.707 8.293L12 10.586ZM12 4C11.7348 4 11.4804 3.89464 11.2929 3.70711C11.1054 3.51957 11 3.26522 11 3C11 2.73478 11.1054 2.48043 11.2929 2.29289C11.4804 2.10536 11.7348 2 12 2C17.523 2 22 6.477 22 12C22 17.523 17.523 22 12 22C6.477 22 2 17.523 2 12C1.99936 10.1938 2.48809 8.4211 3.41426 6.87039C4.34042 5.31968 5.66941 4.04887 7.26 3.193C7.49339 3.06702 7.76727 3.03892 8.02138 3.11487C8.27549 3.19082 8.48902 3.36461 8.615 3.598C8.74098 3.83139 8.76908 4.10527 8.69313 4.35938C8.61718 4.61349 8.44339 4.82702 8.21 4.953C6.49121 5.87662 5.16922 7.39656 4.49283 9.22681C3.81644 11.0571 3.83227 13.0714 4.53735 14.8908C5.24244 16.7102 6.58815 18.2092 8.32125 19.1057C10.0544 20.0021 12.0553 20.2343 13.9477 19.7585C15.84 19.2827 17.4932 18.1316 18.5961 16.522C19.6991 14.9124 20.1757 12.9552 19.9364 11.0187C19.697 9.0822 18.7582 7.29994 17.2966 6.0073C15.8349 4.71466 13.9512 4.00078 12 4ZM13.293 14.707C13.1108 14.5184 13.01 14.2658 13.0123 14.0036C13.0146 13.7414 13.1198 13.4906 13.3052 13.3052C13.4906 13.1198 13.7414 13.0146 14.0036 13.0123C14.2658 13.01 14.5184 13.1108 14.707 13.293L15.707 14.293C15.8892 14.4816 15.99 14.7342 15.9877 14.9964C15.9854 15.2586 15.8802 15.5094 15.6948 15.6948C15.5094 15.8802 15.2586 15.9854 14.9964 15.9877C14.7342 15.99 14.4816 15.8892 14.293 15.707L13.293 14.707Z" fill="#777777"/>
</svg>
