<svg width="18" height="18" viewBox="0 0 18 18" fill="none" xmlns="http://www.w3.org/2000/svg">
<path d="M9 7.586L11.293 5.293C11.4816 5.11084 11.7342 5.01005 11.9964 5.01233C12.2586 5.0146 12.5094 5.11977 12.6948 5.30518C12.8802 5.49059 12.9854 5.7414 12.9877 6.0036C12.99 6.2658 12.8892 6.5184 12.707 6.707L6.707 12.707C6.61475 12.8025 6.50441 12.8787 6.3824 12.9311C6.2604 12.9835 6.12918 13.0111 5.9964 13.0123C5.86362 13.0134 5.73194 12.9881 5.60905 12.9378C5.48615 12.8875 5.3745 12.8133 5.28061 12.7194C5.18671 12.6255 5.11246 12.5139 5.06218 12.391C5.0119 12.2681 4.9866 12.1364 4.98775 12.0036C4.9889 11.8708 5.01649 11.7396 5.0689 11.6176C5.12131 11.4956 5.19749 11.3852 5.293 11.293L7.586 9L5.293 6.707C5.11084 6.5184 5.01005 6.2658 5.01233 6.0036C5.0146 5.7414 5.11977 5.49059 5.30518 5.30518C5.49059 5.11977 5.7414 5.0146 6.0036 5.01233C6.2658 5.01005 6.5184 5.11084 6.707 5.293L9 7.586ZM16 2H5C4.73478 2 4.48043 1.89464 4.29289 1.70711C4.10536 1.51957 4 1.26522 4 1C4 0.734784 4.10536 0.48043 4.29289 0.292893C4.48043 0.105357 4.73478 0 5 0H17C17.2652 0 17.5196 0.105357 17.7071 0.292893C17.8946 0.48043 18 0.734784 18 1V17C18 17.2652 17.8946 17.5196 17.7071 17.7071C17.5196 17.8946 17.2652 18 17 18H1C0.734784 18 0.48043 17.8946 0.292893 17.7071C0.105357 17.5196 0 17.2652 0 17V1C0 0.734784 0.105357 0.48043 0.292893 0.292893C0.48043 0.105357 0.734784 0 1 0C1.26522 0 1.51957 0.105357 1.70711 0.292893C1.89464 0.48043 2 0.734784 2 1V16H16V2ZM10.293 11.707C10.1108 11.5184 10.01 11.2658 10.0123 11.0036C10.0146 10.7414 10.1198 10.4906 10.3052 10.3052C10.4906 10.1198 10.7414 10.0146 11.0036 10.0123C11.2658 10.01 11.5184 10.1108 11.707 10.293L12.707 11.293C12.8892 11.4816 12.99 11.7342 12.9877 11.9964C12.9854 12.2586 12.8802 12.5094 12.6948 12.6948C12.5094 12.8802 12.2586 12.9854 11.9964 12.9877C11.7342 12.99 11.4816 12.8892 11.293 12.707L10.293 11.707Z" fill="#EB5757"/>
</svg>
