<svg width="24" height="24" viewBox="0 0 24 24" fill="none" xmlns="http://www.w3.org/2000/svg">
<path d="M19 19V16C19 15.7348 19.1054 15.4804 19.2929 15.2929C19.4804 15.1054 19.7348 15 20 15C20.2652 15 20.5196 15.1054 20.7071 15.2929C20.8946 15.4804 21 15.7348 21 16V20C21 20.2652 20.8946 20.5196 20.7071 20.7071C20.5196 20.8946 20.2652 21 20 21H4C3.73478 21 3.48043 20.8946 3.29289 20.7071C3.10536 20.5196 3 20.2652 3 20V16C3 15.7348 3.10536 15.4804 3.29289 15.2929C3.48043 15.1054 3.73478 15 4 15C4.26522 15 4.51957 15.1054 4.70711 15.2929C4.89464 15.4804 5 15.7348 5 16V19H19ZM17.293 9.293C17.4816 9.11084 17.7342 9.01005 17.9964 9.01233C18.2586 9.0146 18.5094 9.11977 18.6948 9.30518C18.8802 9.49059 18.9854 9.7414 18.9877 10.0036C18.99 10.2658 18.8892 10.5184 18.707 10.707L12.707 16.707C12.077 17.337 11 16.891 11 16V4C11 3.73478 11.1054 3.48043 11.2929 3.29289C11.4804 3.10536 11.7348 3 12 3C12.2652 3 12.5196 3.10536 12.7071 3.29289C12.8946 3.48043 13 3.73478 13 4V13.586L17.293 9.293ZM9.268 12.36C9.43026 12.5645 9.50612 12.8244 9.47937 13.084C9.45262 13.3437 9.32537 13.5827 9.12482 13.7498C8.92427 13.9169 8.66631 13.999 8.40606 13.9785C8.14581 13.958 7.90389 13.8365 7.732 13.64L5.232 10.64C5.1442 10.5396 5.07736 10.4227 5.03541 10.2962C4.99346 10.1696 4.97725 10.0359 4.98773 9.90298C4.99821 9.77006 5.03516 9.64056 5.09642 9.52213C5.15769 9.40369 5.24201 9.29871 5.34445 9.21334C5.44689 9.12798 5.56536 9.06396 5.6929 9.02506C5.82044 8.98616 5.95448 8.97316 6.08712 8.98683C6.21976 9.00049 6.34832 9.04055 6.46525 9.10463C6.58219 9.16872 6.68512 9.25554 6.768 9.36L9.268 12.36Z" fill="#F1971E"/>
</svg>
