<svg width="5" height="9" viewBox="0 0 5 9" fill="none" xmlns="http://www.w3.org/2000/svg">
<path d="M0.158866 1.34251C0.0677869 1.24821 0.0173898 1.12191 0.018529 0.990808C0.0196682 0.859709 0.0722525 0.734303 0.164957 0.641599C0.257661 0.548895 0.383067 0.49631 0.514165 0.495171C0.645264 0.494031 0.771565 0.544428 0.865866 0.635508L4.36587 4.13551C4.83646 4.6061 4.09539 5.27914 3.65881 4.84256C2.49215 3.67589 1.32553 2.50917 0.158866 1.34251ZM2.43037 5.61551C2.47898 5.56933 2.53639 5.53339 2.59917 5.50985C2.66196 5.48631 2.72884 5.47563 2.79583 5.47846C2.86282 5.48129 2.92856 5.49757 2.98914 5.52632C3.04971 5.55507 3.10389 5.59572 3.14844 5.64583C3.19299 5.69595 3.227 5.75452 3.24845 5.81804C3.2699 5.88157 3.27836 5.94877 3.27332 6.01563C3.26827 6.0825 3.24983 6.14766 3.21909 6.20725C3.18834 6.26684 3.14593 6.31964 3.09437 6.36251L0.844366 8.36251C0.795751 8.40869 0.738344 8.44462 0.675559 8.46817C0.612775 8.49171 0.545897 8.50238 0.478903 8.49955C0.411909 8.49673 0.346168 8.48045 0.285592 8.4517C0.225017 8.42294 0.170843 8.3823 0.126295 8.33218C0.0817474 8.28207 0.047735 8.2235 0.0262817 8.15997C0.00482837 8.09644 -0.00362763 8.02925 0.00141701 7.96238C0.00646166 7.89552 0.0249039 7.83035 0.0556463 7.77076C0.0863886 7.71117 0.128803 7.65837 0.180366 7.61551L2.43037 5.61551Z" fill="#333333"/>
</svg>
