<svg width="9" height="6" viewBox="0 0 9 6" fill="#333333" xmlns="http://www.w3.org/2000/svg">
<path d="M8.14577 0.658866C8.24007 0.567787 8.36638 0.51739 8.49747 0.518529C8.62857 0.519669 8.75398 0.572253 8.84668 0.664957C8.93939 0.757661 8.99197 0.883067 8.99311 1.01417C8.99425 1.14526 8.94385 1.27156 8.85277 1.36587L5.35277 4.86587C4.88218 5.33646 4.20914 4.5954 4.64572 4.15881C5.81239 2.99215 6.97911 1.82553 8.14577 0.658866ZM3.87277 2.93037C3.91896 2.97898 3.95489 3.03639 3.97843 3.09917C4.00197 3.16196 4.01265 3.22884 4.00982 3.29583C4.00699 3.36282 3.99072 3.42856 3.96196 3.48914C3.93321 3.54972 3.89256 3.60389 3.84245 3.64844C3.79233 3.69299 3.73377 3.727 3.67024 3.74845C3.60671 3.7699 3.53951 3.77836 3.47265 3.77332C3.40579 3.76827 3.34062 3.74983 3.28103 3.71909C3.22144 3.68834 3.16864 3.64593 3.12577 3.59437L1.12577 1.34437C1.07959 1.29575 1.04366 1.23834 1.02012 1.17556C0.996572 1.11278 0.985897 1.0459 0.988727 0.978903C0.991556 0.911909 1.00783 0.846168 1.03659 0.785592C1.06534 0.725017 1.10598 0.670843 1.1561 0.626295C1.20622 0.581747 1.26478 0.547735 1.32831 0.526282C1.39184 0.504828 1.45903 0.496372 1.5259 0.501417C1.59276 0.506462 1.65793 0.524904 1.71752 0.555646C1.77711 0.586389 1.82991 0.628803 1.87277 0.680366L3.87277 2.93037Z" fill="#333333"/>
</svg>
