<svg width="24" height="24" viewBox="0 0 24 24" fill="none" xmlns="http://www.w3.org/2000/svg">
<path d="M14.793 11.7928C14.9816 11.6106 15.2342 11.5098 15.4964 11.5121C15.7586 11.5144 16.0094 11.6196 16.1948 11.805C16.3802 11.9904 16.4854 12.2412 16.4877 12.5034C16.49 12.7656 16.3892 13.0182 16.207 13.2068L8.707 20.7068C8.51951 20.8943 8.26519 20.9997 8 20.9998H4C3.73478 20.9998 3.48043 20.8944 3.29289 20.7069C3.10536 20.5194 3 20.265 3 19.9998V15.9998C3.00006 15.7346 3.10545 15.4803 3.293 15.2928L16.293 2.29279C16.4805 2.10532 16.7348 2 17 2C17.2652 2 17.5195 2.10532 17.707 2.29279L21.707 6.29279C21.8945 6.48031 21.9998 6.73462 21.9998 6.99979C21.9998 7.26495 21.8945 7.51926 21.707 7.70679L18.707 10.7068C18.5195 10.8943 18.2652 10.9996 18 10.9996C17.7348 10.9996 17.4805 10.8943 17.293 10.7068L15.293 8.70679C15.1975 8.61454 15.1213 8.50419 15.0689 8.38219C15.0165 8.26019 14.9889 8.12897 14.9877 7.99619C14.9866 7.86341 15.0119 7.73173 15.0622 7.60883C15.1125 7.48594 15.1867 7.37428 15.2806 7.28039C15.3745 7.1865 15.4861 7.11225 15.609 7.06196C15.7319 7.01168 15.8636 6.98638 15.9964 6.98754C16.1292 6.98869 16.2604 7.01628 16.3824 7.06869C16.5044 7.12109 16.6148 7.19728 16.707 7.29279L18 8.58579L19.586 6.99979L17 4.41379L5 16.4138V18.9998H7.586L14.793 11.7928Z" fill="#F1971E"/>
</svg>
