<svg width="24" height="24" viewBox="0 0 24 24" fill="none" xmlns="http://www.w3.org/2000/svg">
<g clip-path="url(#clip0)">
<path d="M20 7.83C19.578 7.68039 19.1947 7.43847 18.8781 7.12187C18.5615 6.80528 18.3196 6.422 18.17 6H5C4.73478 6 4.48043 5.89464 4.29289 5.70711C4.10536 5.51957 4 5.26522 4 5C4 4.73479 4.10536 4.48043 4.29289 4.2929C4.48043 4.10536 4.73478 4 5 4H18.17C18.339 3.52212 18.6264 3.09484 19.0052 2.75803C19.384 2.42122 19.842 2.18586 20.3364 2.0739C20.8308 1.96195 21.3455 1.97705 21.8324 2.11779C22.3194 2.25853 22.7628 2.52033 23.1212 2.87877C23.4797 3.2372 23.7415 3.68059 23.8822 4.16756C24.023 4.65453 24.0381 5.16922 23.9261 5.6636C23.8141 6.15799 23.5788 6.61596 23.242 6.99479C22.9052 7.37362 22.4779 7.66096 22 7.83V19C22 19.2652 21.8946 19.5196 21.7071 19.7071C21.5196 19.8946 21.2652 20 21 20H3C2.73478 20 2.48043 19.8946 2.29289 19.7071C2.10536 19.5196 2 19.2652 2 19V8C2 7.8215 2.04778 7.64625 2.13838 7.49244C2.22898 7.33864 2.3591 7.21189 2.51523 7.12536C2.67136 7.03882 2.8478 6.99566 3.02625 7.00034C3.20469 7.00503 3.37863 7.05739 3.53 7.152L10.983 11.81L16.445 8.168C16.6657 8.02081 16.9358 7.9673 17.1959 8.01924C17.456 8.07119 17.6848 8.22434 17.832 8.445C17.9792 8.66566 18.0327 8.93576 17.9808 9.19587C17.9288 9.45598 17.7757 9.68481 17.555 9.832L11.555 13.832C11.3949 13.9388 11.2073 13.9971 11.0149 14C10.8224 14.0028 10.6332 13.95 10.47 13.848L4 9.804V18H20V7.83ZM21 6C21.2652 6 21.5196 5.89464 21.7071 5.70711C21.8946 5.51957 22 5.26522 22 5C22 4.73479 21.8946 4.48043 21.7071 4.2929C21.5196 4.10536 21.2652 4 21 4C20.7348 4 20.4804 4.10536 20.2929 4.2929C20.1054 4.48043 20 4.73479 20 5C20 5.26522 20.1054 5.51957 20.2929 5.70711C20.4804 5.89464 20.7348 6 21 6Z" fill="#F1971E"/>
</g>
<defs>
<clipPath id="clip0">
<rect width="24" height="24" fill="white"/>
</clipPath>
</defs>
</svg>
