<svg width="124" height="80" viewBox="0 0 124 80" fill="none" xmlns="http://www.w3.org/2000/svg">
<path d="M117.623 33.207L123.573 26.1499C123.897 25.7652 124.047 25.2631 123.987 24.7637L121.224 1.60137C121.14 0.896751 120.653 0.305492 119.978 0.087494C119.302 -0.129777 118.562 0.0652102 118.082 0.587921L105.568 14.221L82.6987 16.5505C81.7007 16.652 80.9741 17.5438 81.0756 18.5418C81.1773 19.5399 82.0705 20.2676 83.0666 20.1651L106.623 17.7657C107.066 17.7206 107.476 17.5147 107.777 17.187L118.085 5.95745L120.286 24.411L115.009 30.6716L104.329 37.8765C103.792 38.2388 103.489 38.8594 103.532 39.5057L104.362 51.7385C104.423 52.6262 105.117 53.3396 106.003 53.4239L113.608 54.1481L117.506 64.0731L115.725 68.6627L110.534 61.7342C110.13 61.1955 109.462 60.9242 108.797 61.0291L100.911 62.2746C100.261 62.3773 99.7178 62.8234 99.4901 63.4409L96.935 70.3773L82.1882 73.367C81.2049 73.5664 80.5697 74.5251 80.769 75.5085C80.9436 76.3701 81.7012 76.9645 82.5474 76.9645C82.667 76.9645 82.7884 76.9526 82.9102 76.9279L98.6502 73.7367C99.2676 73.6114 99.7759 73.1754 99.9936 72.5842L102.531 65.6969L108.283 64.7883L114.781 73.4605C115.176 73.9886 115.827 74.2611 116.481 74.171C117.135 74.0811 117.689 73.6439 117.928 73.0287L121.149 64.7263C121.315 64.301 121.314 63.8294 121.147 63.4048L116.582 51.7811C116.331 51.1441 115.744 50.7018 115.063 50.6369L107.883 49.9531L107.228 40.3033L117.25 33.5422C117.39 33.4482 117.515 33.3353 117.623 33.207Z" fill="url(#paint0_linear)"/>
<path d="M74.2198 74.9829L68.1992 76.2034L53.8581 61.1553C53.4064 60.6812 52.7348 60.4867 52.0993 60.6471L41.6937 63.2696L37.0284 57.527C36.7214 57.1492 36.2757 56.9104 35.7909 56.8641L18.3592 55.2037C17.8508 55.155 17.3437 55.3236 16.9651 55.668C16.5866 56.0122 16.3706 56.5003 16.3706 57.0121V60.8377L9.47474 67.8892L7.21464 57.9744L10.1417 50.2837C10.3183 49.8196 10.2974 49.3034 10.0836 48.8553C9.86999 48.407 9.482 48.0659 9.01022 47.9114L3.98119 46.2619L10.0911 21.2934L21.6246 14.2365L31.4107 18.789C32.3203 19.2124 33.4005 18.8179 33.8236 17.9081C34.2467 16.9983 33.8524 15.918 32.9427 15.4948L22.2736 10.5315C21.7222 10.275 21.0784 10.3116 20.5597 10.6289L7.55685 18.5848C7.14804 18.8351 6.85451 19.2369 6.74044 19.7024L0.05242 47.0321C-0.173299 47.9543 0.3491 48.8946 1.25077 49.1903L6.06909 50.7706L3.62348 57.1959C3.49585 57.5309 3.47042 57.8964 3.5501 58.246L6.67287 71.945C6.8206 72.5931 7.31079 73.1091 7.95041 73.2895C8.59002 73.4697 9.27735 73.2866 9.74235 72.8114L19.4856 62.8486C19.8176 62.5093 20.0034 62.0532 20.0034 61.5784V59.0099L34.6889 60.409L39.6046 66.4599C40.05 67.0083 40.7734 67.2486 41.4581 67.0759L51.9593 64.4293L66.2617 79.4368C66.6081 79.8001 67.0849 80 67.5766 80C67.6964 80 67.8173 79.9881 67.9374 79.9639L74.9413 78.544C75.9245 78.3447 76.5598 77.3859 76.3605 76.4025C76.1616 75.4191 75.204 74.7828 74.2198 74.9829Z" fill="url(#paint1_linear)"/>
<path d="M75.8779 11.5264C66.962 11.5264 62.6283 10.4863 58.0403 9.38491C53.756 8.35644 49.3353 7.29552 41.1709 7.15818V5.08429C41.1709 4.08101 40.3576 3.26764 39.3545 3.26764C38.3514 3.26764 37.5381 4.08101 37.5381 5.08429V47.125C37.5381 48.1282 38.3514 48.9416 39.3545 48.9416C40.3576 48.9416 41.1709 48.1282 41.1709 47.125V38.0587C48.8819 38.1902 52.9272 39.1613 57.1924 40.1851C61.784 41.2872 66.5321 42.4269 75.8779 42.4269C76.881 42.4269 77.6943 41.6135 77.6943 40.6102V13.343C77.6943 12.3395 76.881 11.5264 75.8779 11.5264ZM57.1924 12.9177C61.4767 13.9462 65.8973 15.0071 74.0615 15.1444V20.6777C66.3507 20.5462 62.3054 19.5751 58.0403 18.5512C53.756 17.5228 49.3353 16.4618 41.1709 16.3245V10.7912C48.8819 10.923 52.9272 11.8938 57.1924 12.9177ZM58.0403 36.6521C53.756 35.6236 49.3353 34.5627 41.1709 34.4254V28.9153C48.8817 29.0469 52.9269 30.0179 57.1921 31.0416C57.7913 31.1854 58.3902 31.3291 58.9996 31.4705C59.1376 31.5025 59.2757 31.5178 59.4115 31.5178C60.2376 31.5178 60.9848 30.9505 61.1795 30.1112C61.4062 29.1338 60.7978 28.1577 59.8206 27.931C59.2204 27.7917 58.6302 27.65 58.04 27.5083C53.7557 26.4801 49.3353 25.4191 41.1711 25.2816V19.9578C48.8822 20.0893 52.9274 21.0604 57.1926 22.0843C61.4769 23.1127 65.8976 24.1736 74.0617 24.311V29.6345C71.7517 29.5945 69.6524 29.4763 67.6866 29.2765C66.6866 29.1748 65.7973 29.9019 65.6956 30.8999C65.5941 31.898 66.3209 32.7894 67.3187 32.8911C69.4044 33.1033 71.6243 33.2278 74.0617 33.2685V38.7783C66.3502 38.6468 62.3054 37.6757 58.0403 36.6521Z" fill="url(#paint2_linear)"/>
<defs>
<linearGradient id="paint0_linear" x1="80.7324" y1="76.9645" x2="127.147" y2="75.0173" gradientUnits="userSpaceOnUse">
<stop offset="0.0297586" stop-color="#F7BB11"/>
<stop offset="1" stop-color="#F1971E"/>
</linearGradient>
<linearGradient id="paint1_linear" x1="-5.69202e-07" y1="80" x2="81.5514" y2="73.3238" gradientUnits="userSpaceOnUse">
<stop offset="0.0297586" stop-color="#F7BB11"/>
<stop offset="1" stop-color="#F1971E"/>
</linearGradient>
<linearGradient id="paint2_linear" x1="37.5381" y1="48.9416" x2="80.5059" y2="46.1226" gradientUnits="userSpaceOnUse">
<stop offset="0.0297586" stop-color="#F7BB11"/>
<stop offset="1" stop-color="#F1971E"/>
</linearGradient>
</defs>
</svg>
