<svg width="125" height="81" viewBox="0 0 125 81" fill="none" xmlns="http://www.w3.org/2000/svg">
<path fill-rule="evenodd" clip-rule="evenodd" d="M72.2861 32.6338C52.5229 37.1168 28.1504 36.6117 9.20801 32.4443L40.8418 46.3986C40.8418 46.3986 72.3493 32.5706 72.2861 32.6338Z" fill="url(#paint0_linear)" stroke="url(#paint1_linear)" stroke-width="0.4"/>
<path fill-rule="evenodd" clip-rule="evenodd" d="M40.9054 46.0828L18.4902 74.0544L40.9685 58.711L63.2574 73.7387C63.2574 73.7387 40.8422 46.0828 40.9054 46.0828Z" fill="url(#paint2_linear)" stroke="url(#paint3_linear)" stroke-width="0.4"/>
<path fill-rule="evenodd" clip-rule="evenodd" d="M38.6958 19.6266L38.5695 16.7221C34.781 15.1436 29.6034 17.6061 30.1085 23.2888C30.6137 27.8981 35.0967 29.8555 39.1377 28.2138L39.0115 25.183C37.6224 26.4459 36.2332 26.509 35.0967 26.067C31.3082 24.4885 32.4448 19.374 35.665 18.932C37.2435 18.6795 38.6958 19.6266 38.6958 19.6266Z" fill="url(#paint4_linear)" stroke="url(#paint5_linear)" stroke-width="0.4"/>
<path fill-rule="evenodd" clip-rule="evenodd" d="M26.4455 21.8998L25.5615 19.1215C21.5205 18.6164 17.1637 22.3418 19.1211 27.7088C20.8259 32.0024 25.6878 32.6969 29.0974 30.045L28.2134 27.2036C27.2032 28.7822 25.8772 29.2242 24.6775 29.0979C20.5733 28.5927 20.3839 23.352 23.3516 22.0892C24.8038 21.3946 26.4455 21.8998 26.4455 21.8998Z" fill="url(#paint6_linear)" stroke="url(#paint7_linear)" stroke-width="0.4"/>
<path fill-rule="evenodd" clip-rule="evenodd" d="M51.4495 20.7632L52.1441 17.9218C48.987 15.333 43.3043 16.2801 42.2309 21.8366C41.41 26.3827 45.1985 29.5398 49.4921 29.0978L50.2498 26.1933C48.545 27.0141 47.2191 26.6984 46.2719 25.9407C43.0517 23.352 45.6405 18.8058 48.7976 19.2478C50.313 19.5003 51.4495 20.7632 51.4495 20.7632Z" fill="url(#paint8_linear)" stroke="url(#paint9_linear)" stroke-width="0.4"/>
<path fill-rule="evenodd" clip-rule="evenodd" d="M52.9656 29.9818L55.6807 30.8027L56.7541 27.393C57.7012 27.7087 58.9641 28.1507 59.7218 28.3402C60.9846 28.6559 63.8259 28.277 64.7099 25.5619C65.5939 22.8469 63.7628 20.7632 62.3106 20.2581C60.7952 19.7529 56.6278 18.427 56.6278 18.427C56.6278 18.427 52.9025 29.9818 52.9656 29.9818ZM57.3224 25.6882L58.8378 21.0158C59.4061 21.2052 60.5426 21.584 60.9846 21.7735C62.8157 22.468 62.3106 26.8879 59.2166 26.2565C58.7115 26.1302 57.8907 25.8776 57.3224 25.6882Z" fill="url(#paint10_linear)" stroke="url(#paint11_linear)" stroke-width="0.4"/>
<path fill-rule="evenodd" clip-rule="evenodd" d="M40.9684 1C25.4357 8.13496 11.8603 17.543 1 30.1713C3.08366 46.588 7.75612 62.247 16.5328 76.5801C32.5706 80.3686 48.8611 80.558 65.5304 76.5801C74.6859 61.6156 79.232 46.0829 81 30.2344C69.7609 17.4167 56.3749 7.75612 40.9684 1ZM40.9684 4.34648C26.8248 10.9132 14.3859 19.5004 4.40963 30.9921C6.30386 46.0197 10.5343 60.2897 18.6164 73.423C33.2652 76.8327 48.1665 77.0852 63.3836 73.423C71.7182 59.7214 75.8856 45.5777 77.5272 31.1184C67.2983 19.3741 55.0489 10.5343 40.9684 4.34648Z" fill="url(#paint12_linear)" stroke="url(#paint13_linear)" stroke-width="0.4"/>
<defs>
<linearGradient id="paint0_linear" x1="9.20801" y1="46.3986" x2="70.0683" y2="25.8691" gradientUnits="userSpaceOnUse">
<stop offset="0.0297586" stop-color="#F7BB11"/>
<stop offset="1" stop-color="#F1971E"/>
</linearGradient>
<linearGradient id="paint1_linear" x1="9.20801" y1="46.3986" x2="70.0683" y2="25.8691" gradientUnits="userSpaceOnUse">
<stop offset="0.0297586" stop-color="#F7BB11"/>
<stop offset="1" stop-color="#F1971E"/>
</linearGradient>
<linearGradient id="paint2_linear" x1="18.4902" y1="74.0544" x2="65.9215" y2="68.3897" gradientUnits="userSpaceOnUse">
<stop offset="0.0297586" stop-color="#F7BB11"/>
<stop offset="1" stop-color="#F1971E"/>
</linearGradient>
<linearGradient id="paint3_linear" x1="18.4902" y1="74.0544" x2="65.9215" y2="68.3897" gradientUnits="userSpaceOnUse">
<stop offset="0.0297586" stop-color="#F7BB11"/>
<stop offset="1" stop-color="#F1971E"/>
</linearGradient>
<linearGradient id="paint4_linear" x1="30.0742" y1="28.7872" x2="39.7858" y2="28.2632" gradientUnits="userSpaceOnUse">
<stop offset="0.0297586" stop-color="#F7BB11"/>
<stop offset="1" stop-color="#F1971E"/>
</linearGradient>
<linearGradient id="paint5_linear" x1="30.0742" y1="28.7872" x2="39.7858" y2="28.2632" gradientUnits="userSpaceOnUse">
<stop offset="0.0297586" stop-color="#F7BB11"/>
<stop offset="1" stop-color="#F1971E"/>
</linearGradient>
<linearGradient id="paint6_linear" x1="18.6377" y1="31.6058" x2="29.8345" y2="30.9083" gradientUnits="userSpaceOnUse">
<stop offset="0.0297586" stop-color="#F7BB11"/>
<stop offset="1" stop-color="#F1971E"/>
</linearGradient>
<linearGradient id="paint7_linear" x1="18.6377" y1="31.6058" x2="29.8345" y2="30.9083" gradientUnits="userSpaceOnUse">
<stop offset="0.0297586" stop-color="#F7BB11"/>
<stop offset="1" stop-color="#F1971E"/>
</linearGradient>
<linearGradient id="paint8_linear" x1="42.1182" y1="29.139" x2="52.8543" y2="28.5011" gradientUnits="userSpaceOnUse">
<stop offset="0.0297586" stop-color="#F7BB11"/>
<stop offset="1" stop-color="#F1971E"/>
</linearGradient>
<linearGradient id="paint9_linear" x1="42.1182" y1="29.139" x2="52.8543" y2="28.5011" gradientUnits="userSpaceOnUse">
<stop offset="0.0297586" stop-color="#F7BB11"/>
<stop offset="1" stop-color="#F1971E"/>
</linearGradient>
<linearGradient id="paint10_linear" x1="52.9648" y1="30.8027" x2="65.7684" y2="29.878" gradientUnits="userSpaceOnUse">
<stop offset="0.0297586" stop-color="#F7BB11"/>
<stop offset="1" stop-color="#F1971E"/>
</linearGradient>
<linearGradient id="paint11_linear" x1="52.9648" y1="30.8027" x2="65.7684" y2="29.878" gradientUnits="userSpaceOnUse">
<stop offset="0.0297586" stop-color="#F7BB11"/>
<stop offset="1" stop-color="#F1971E"/>
</linearGradient>
<linearGradient id="paint12_linear" x1="0.999999" y1="79.4929" x2="86.4754" y2="72.9921" gradientUnits="userSpaceOnUse">
<stop offset="0.0297586" stop-color="#F7BB11"/>
<stop offset="1" stop-color="#F1971E"/>
</linearGradient>
<linearGradient id="paint13_linear" x1="0.999999" y1="79.4929" x2="86.4754" y2="72.9921" gradientUnits="userSpaceOnUse">
<stop offset="0.0297586" stop-color="#F7BB11"/>
<stop offset="1" stop-color="#F1971E"/>
</linearGradient>
</defs>
</svg>
