<svg width="125" height="82" viewBox="0 0 125 82" fill="none" xmlns="http://www.w3.org/2000/svg">
<path d="M59.3336 81C47.387 81 37.667 71.2798 37.667 59.3329C37.667 47.3859 47.387 37.6657 59.3336 37.6657C71.2803 37.6657 81.0003 47.3859 81.0003 59.3329C81.0003 71.2798 71.2803 81 59.3336 81ZM59.3336 40.9991C49.2237 40.9991 41.0003 49.2227 41.0003 59.3329C41.0003 69.4431 49.2237 77.6666 59.3336 77.6666C69.4436 77.6666 77.667 69.4431 77.667 59.3329C77.667 49.2227 69.4436 40.9991 59.3336 40.9991Z" fill="url(#paint0_linear)" stroke="url(#paint1_linear)" stroke-width="0.4"/>
<path d="M67.667 69.3331C67.3036 69.3331 66.9336 69.2131 66.627 68.9697L58.2937 62.3029C57.897 61.9829 57.667 61.5063 57.667 60.9996V49.3327C57.667 48.4127 58.4137 47.666 59.3337 47.666C60.2537 47.666 61.0003 48.4127 61.0003 49.3327V60.1996L68.707 66.3664C69.4236 66.943 69.5403 67.9897 68.967 68.7097C68.6403 69.1197 68.1536 69.3331 67.667 69.3331Z" fill="url(#paint2_linear)" stroke="url(#paint3_linear)" stroke-width="0.4"/>
<path d="M34.3571 35.9991C33.7438 35.9991 33.1571 35.6624 32.8638 35.079C32.4538 34.2557 32.7871 33.2523 33.6105 32.8423L65.2571 17.0087C65.7705 16.7487 66.3838 16.7753 66.8771 17.082C67.3671 17.3853 67.6671 17.922 67.6671 18.4987V32.6657C67.6671 33.5857 66.9205 34.3324 66.0005 34.3324C65.0805 34.3324 64.3338 33.5857 64.3338 32.6657V21.1954L35.1005 35.8224C34.8605 35.9424 34.6071 35.9991 34.3571 35.9991Z" fill="url(#paint4_linear)" stroke="url(#paint5_linear)" stroke-width="0.4"/>
<path d="M32.6433 67.6664C32.37 67.6664 32.09 67.5997 31.8333 67.4564L1.85333 50.7894C1.33 50.496 1 49.9393 1 49.3327V18.4987C1 17.922 1.3 17.3853 1.79 17.082C2.28 16.7753 2.89667 16.7487 3.41 17.0087L35.0567 32.8423C35.88 33.2557 36.2133 34.2557 35.8033 35.079C35.39 35.9024 34.39 36.2357 33.5667 35.8257L4.33333 21.1954V48.3526L33.4567 64.543C34.26 64.9897 34.55 66.003 34.1033 66.8097C33.7967 67.3564 33.23 67.6664 32.6433 67.6664V67.6664Z" fill="url(#paint6_linear)" stroke="url(#paint7_linear)" stroke-width="0.4"/>
<path d="M66.0001 20.1654C65.7501 20.1654 65.4968 20.1087 65.2568 19.9887L34.3135 4.52841L3.41346 19.9887C2.59013 20.3954 1.59013 20.0687 1.1768 19.2454C0.763464 18.422 1.10013 17.422 1.92346 17.0087L33.5701 1.175C34.0401 0.941665 34.5935 0.941665 35.0601 1.175L66.7468 17.0087C67.5701 17.422 67.9035 18.422 67.4935 19.2454C67.2001 19.8287 66.6101 20.1654 66.0001 20.1654Z" fill="url(#paint8_linear)" stroke="url(#paint9_linear)" stroke-width="0.4"/>
<path d="M17.8102 40.1291C16.8902 40.1291 16.1436 39.3825 16.1436 38.4624V26.0689C16.1436 25.4388 16.5002 24.8622 17.0636 24.5788L48.7102 8.74516C49.5335 8.33515 50.5335 8.6685 50.9469 9.49185C51.3602 10.3152 51.0235 11.3152 50.2002 11.7286L19.4769 27.1022V38.4658C19.4769 39.3858 18.7336 40.1291 17.8102 40.1291V40.1291Z" fill="url(#paint10_linear)" stroke="url(#paint11_linear)" stroke-width="0.4"/>
<defs>
<linearGradient id="paint0_linear" x1="37.667" y1="81" x2="83.9761" y2="77.5444" gradientUnits="userSpaceOnUse">
<stop offset="0.0297586" stop-color="#F7BB11"/>
<stop offset="1" stop-color="#F1971E"/>
</linearGradient>
<linearGradient id="paint1_linear" x1="37.667" y1="81" x2="83.9761" y2="77.5444" gradientUnits="userSpaceOnUse">
<stop offset="0.0297586" stop-color="#F7BB11"/>
<stop offset="1" stop-color="#F1971E"/>
</linearGradient>
<linearGradient id="paint2_linear" x1="57.667" y1="69.3331" x2="70.1812" y2="68.8304" gradientUnits="userSpaceOnUse">
<stop offset="0.0297586" stop-color="#F7BB11"/>
<stop offset="1" stop-color="#F1971E"/>
</linearGradient>
<linearGradient id="paint3_linear" x1="57.667" y1="69.3331" x2="70.1812" y2="68.8304" gradientUnits="userSpaceOnUse">
<stop offset="0.0297586" stop-color="#F7BB11"/>
<stop offset="1" stop-color="#F1971E"/>
</linearGradient>
<linearGradient id="paint4_linear" x1="32.6885" y1="35.9991" x2="69.593" y2="30.9736" gradientUnits="userSpaceOnUse">
<stop offset="0.0297586" stop-color="#F7BB11"/>
<stop offset="1" stop-color="#F1971E"/>
</linearGradient>
<linearGradient id="paint5_linear" x1="32.6885" y1="35.9991" x2="69.593" y2="30.9736" gradientUnits="userSpaceOnUse">
<stop offset="0.0297586" stop-color="#F7BB11"/>
<stop offset="1" stop-color="#F1971E"/>
</linearGradient>
<linearGradient id="paint6_linear" x1="1" y1="67.6664" x2="38.49" y2="65.7414" gradientUnits="userSpaceOnUse">
<stop offset="0.0297586" stop-color="#F7BB11"/>
<stop offset="1" stop-color="#F1971E"/>
</linearGradient>
<linearGradient id="paint7_linear" x1="1" y1="67.6664" x2="38.49" y2="65.7414" gradientUnits="userSpaceOnUse">
<stop offset="0.0297586" stop-color="#F7BB11"/>
<stop offset="1" stop-color="#F1971E"/>
</linearGradient>
<linearGradient id="paint8_linear" x1="1" y1="20.1654" x2="68.121" y2="2.74203" gradientUnits="userSpaceOnUse">
<stop offset="0.0297586" stop-color="#F7BB11"/>
<stop offset="1" stop-color="#F1971E"/>
</linearGradient>
<linearGradient id="paint9_linear" x1="1" y1="20.1654" x2="68.121" y2="2.74203" gradientUnits="userSpaceOnUse">
<stop offset="0.0297586" stop-color="#F7BB11"/>
<stop offset="1" stop-color="#F1971E"/>
</linearGradient>
<linearGradient id="paint10_linear" x1="16.1436" y1="40.1291" x2="53.4786" y2="37.0411" gradientUnits="userSpaceOnUse">
<stop offset="0.0297586" stop-color="#F7BB11"/>
<stop offset="1" stop-color="#F1971E"/>
</linearGradient>
<linearGradient id="paint11_linear" x1="16.1436" y1="40.1291" x2="53.4786" y2="37.0411" gradientUnits="userSpaceOnUse">
<stop offset="0.0297586" stop-color="#F7BB11"/>
<stop offset="1" stop-color="#F1971E"/>
</linearGradient>
</defs>
</svg>
