<svg width="82" height="82" viewBox="0 0 82 82" fill="none" xmlns="http://www.w3.org/2000/svg">
<path d="M80.6555 18.2555C70.4361 7.28903 55.9832 1 41.0013 1C26.0194 1 11.5652 7.28903 1.3471 18.2555C1.12387 18.4942 1 18.809 1 19.1355V81C5.73161 81 10.4632 81 15.1948 81H30.6787H46.1626H81.0026V19.1355C81.0026 18.809 80.8787 18.4942 80.6555 18.2555ZM76.6181 17.8452H5.38323C14.9394 8.74581 27.7523 3.58065 41.0013 3.58065C54.2503 3.58065 67.0632 8.74581 76.6181 17.8452ZM13.9045 33.6774V29.8064C13.9045 29.0955 13.9045 28.5161 13.9045 28.5161H66.8077C67.5187 28.5161 68.0981 28.5161 68.0981 28.5161V33.6774H13.9045ZM46.1626 62.9355H31.969V47.4516C31.969 47.4516 31.391 47.4516 30.6787 47.4516H16.4852V43.5806H65.5174V78.4193H47.4529V62.9355C47.4529 62.9355 46.8748 62.9355 46.1626 62.9355ZM37.1303 65.5161H39.711V68.0968H37.1303V65.5161ZM21.6465 65.5161H24.2271V68.0968H21.6465V65.5161ZM16.4852 62.9355V50.0323H19.0658V53.9032C19.0658 54.6155 19.0658 55.1935 19.0658 55.1935H26.8077C26.8077 55.1935 26.8077 54.6155 26.8077 53.9032V50.0323H29.3884V62.9355H16.4852ZM65.5174 41H16.4852V36.2581H65.5174V41ZM21.6465 50.0323H24.2271V52.6129H21.6465V50.0323ZM16.4852 65.5161H19.0658V69.3871C19.0658 70.0993 19.0658 70.6774 19.0658 70.6774H26.8077C26.8077 70.6774 26.8077 70.0993 26.8077 69.3871V65.5161H29.3884V78.4193H16.4852V65.5161ZM31.969 78.4193V65.5161H34.5497V69.3871C34.5497 70.0993 34.5497 70.6774 34.5497 70.6774H42.2916C42.2916 70.6774 42.2916 70.0993 42.2916 69.3871V65.5161H44.8723V78.4193H31.969ZM68.0981 78.4193V40.129V36.2581H69.3884C70.1006 36.2581 70.6787 36.2581 70.6787 36.2581V25.9355C70.6787 25.9355 68.9419 25.9355 66.8077 25.9355H11.3239C11.3239 25.9355 11.3239 27.6723 11.3239 29.8064V34.9677C11.3239 35.68 11.3239 36.2581 11.3239 36.2581H13.9045V40.129V48.7419V64.2258V78.4193H3.58194L3.58065 21.4245H78.4219L78.4206 78.4181H68.0981V78.4193Z" fill="url(#paint0_linear)" stroke="url(#paint1_linear)"/>
<defs>
<linearGradient id="paint0_linear" x1="0.999999" y1="81" x2="86.4964" y2="74.6198" gradientUnits="userSpaceOnUse">
<stop offset="0.0297586" stop-color="#F7BB11"/>
<stop offset="1" stop-color="#F1971E"/>
</linearGradient>
<linearGradient id="paint1_linear" x1="0.999999" y1="81" x2="86.4964" y2="74.6198" gradientUnits="userSpaceOnUse">
<stop offset="0.0297586" stop-color="#F7BB11"/>
<stop offset="1" stop-color="#F1971E"/>
</linearGradient>
</defs>
</svg>
