<svg width="20" height="20" viewBox="0 0 20 20" fill="none" xmlns="http://www.w3.org/2000/svg">
<path d="M8.4277 9.76617L8.30138 9.85617C8.27643 9.87389 8.25498 9.89673 8.23824 9.92337C8.2215 9.95002 8.2098 9.97995 8.20382 10.0115C8.19784 10.043 8.19769 10.0754 8.20337 10.107C8.20906 10.1386 8.22047 10.1686 8.23696 10.1955L8.25202 10.2207C8.30054 10.2999 8.40009 10.3107 8.46702 10.3296C8.52376 10.3328 8.57993 10.3434 8.63433 10.3611C8.73108 10.397 8.81346 10.4675 8.86773 10.5608C8.95139 10.7156 8.89701 10.9064 8.87694 10.9964C8.69791 11.7866 8.5147 12.5759 8.33902 13.3678C8.19262 14.0275 8.5398 14.5 9.17559 14.5C9.88082 14.5 10.5141 14.2498 11.093 13.8268C11.1331 13.7969 11.1687 13.7605 11.1984 13.7188C11.3122 13.5577 11.2687 13.4344 11.0855 13.3894C11.0319 13.3759 10.9767 13.366 10.924 13.3507C10.5752 13.249 10.4848 13.0808 10.5702 12.7064C10.7517 11.9099 10.9374 11.1143 11.1148 10.317C11.2336 9.78867 11.0068 9.35489 10.5534 9.23699C10.4299 9.20719 10.3036 9.19269 10.177 9.1938C10.0204 9.20069 9.86448 9.21873 9.71016 9.24779C9.61061 9.26759 9.52026 9.29009 9.4366 9.31439C9.2757 9.36103 9.11758 9.41814 8.9631 9.48538C8.86941 9.52588 8.75061 9.58078 8.61593 9.65188L8.4277 9.76617ZM10.6128 5.50033C10.4559 5.49646 10.2998 5.52658 10.1539 5.5889C10.0079 5.65122 9.87514 5.74447 9.76338 5.8631C9.65163 5.98173 9.56318 6.12332 9.50331 6.27946C9.44343 6.4356 9.41335 6.60309 9.41485 6.77198C9.41197 7.11211 9.5348 7.43954 9.75632 7.68224C9.97785 7.92494 10.2799 8.06303 10.5961 8.06614C10.9123 8.06924 11.2166 7.9371 11.4422 7.69879C11.6678 7.46047 11.7962 7.13551 11.7991 6.79538C11.8015 6.62618 11.7726 6.45815 11.7141 6.30107C11.6556 6.144 11.5686 6.00103 11.4582 5.8805C11.3477 5.75996 11.2161 5.66427 11.071 5.599C10.9259 5.53373 10.7701 5.50019 10.6128 5.50033V5.50033Z" fill="#AAAAAA"/>
<circle cx="10.0008" cy="10" r="8.2" stroke="#AAAAAA" stroke-width="2"/>
</svg>
