<svg width="24" height="24" viewBox="0 0 24 24" fill="none" xmlns="http://www.w3.org/2000/svg">
<path d="M19 5H16C15.7348 5 15.4804 4.89464 15.2929 4.70711C15.1054 4.51957 15 4.26522 15 4C15 3.73478 15.1054 3.48043 15.2929 3.29289C15.4804 3.10536 15.7348 3 16 3H20C20.2652 3 20.5196 3.10536 20.7071 3.29289C20.8946 3.48043 21 3.73478 21 4V20C21 20.2652 20.8946 20.5196 20.7071 20.7071C20.5196 20.8946 20.2652 21 20 21H16C15.7348 21 15.4804 20.8946 15.2929 20.7071C15.1054 20.5196 15 20.2652 15 20C15 19.7348 15.1054 19.4804 15.2929 19.2929C15.4804 19.1054 15.7348 19 16 19H19V5ZM13.586 11L9.293 6.707C9.19749 6.61475 9.12131 6.50441 9.0689 6.3824C9.01649 6.2604 8.9889 6.12918 8.98775 5.9964C8.9866 5.86362 9.0119 5.73194 9.06218 5.60905C9.11246 5.48615 9.18671 5.3745 9.28061 5.2806C9.3745 5.18671 9.48615 5.11246 9.60905 5.06218C9.73194 5.0119 9.86362 4.9866 9.9964 4.98775C10.1292 4.9889 10.2604 5.01649 10.3824 5.0689C10.5044 5.12131 10.6148 5.19749 10.707 5.293L16.707 11.293C17.337 11.923 16.891 13 16 13H4C3.73478 13 3.48043 12.8946 3.29289 12.7071C3.10536 12.5196 3 12.2652 3 12C3 11.7348 3.10536 11.4804 3.29289 11.2929C3.48043 11.1054 3.73478 11 4 11H13.586ZM12.36 14.732C12.4604 14.6442 12.5773 14.5774 12.7038 14.5354C12.8304 14.4935 12.9641 14.4772 13.097 14.4877C13.2299 14.4982 13.3594 14.5352 13.4779 14.5964C13.5963 14.6577 13.7013 14.742 13.7867 14.8445C13.872 14.9469 13.936 15.0654 13.9749 15.1929C14.0138 15.3204 14.0268 15.4545 14.0132 15.5871C13.9995 15.7198 13.9595 15.8483 13.8954 15.9653C13.8313 16.0822 13.7445 16.1851 13.64 16.268L10.64 18.768C10.5396 18.8558 10.4227 18.9226 10.2962 18.9646C10.1696 19.0065 10.0359 19.0227 9.90298 19.0123C9.77006 19.0018 9.64056 18.9648 9.52213 18.9036C9.40369 18.8423 9.29871 18.758 9.21334 18.6555C9.12798 18.5531 9.06396 18.4346 9.02506 18.3071C8.98616 18.1796 8.97316 18.0455 8.98683 17.9129C9.00049 17.7802 9.04055 17.6517 9.10463 17.5347C9.16872 17.4178 9.25554 17.3149 9.36 17.232L12.36 14.732Z" fill="#333333"/>
</svg>
