<svg width="28" height="24" viewBox="0 0 28 24" fill="none" xmlns="http://www.w3.org/2000/svg">
<circle r="4.5" transform="matrix(1 0 0 -1 23.5 4.5)" fill="#219653"/>
<path d="M14.5205 10.107L15.5305 11.117L19.2905 12.266C19.4715 12.3211 19.6332 12.4265 19.7568 12.5699C19.8804 12.7133 19.9607 12.8888 19.9885 13.076L20.9895 19.854C21.0104 19.9961 21.0005 20.141 20.9605 20.279C20.9204 20.4169 20.8511 20.5446 20.7572 20.6533C20.6634 20.7621 20.5472 20.8493 20.4166 20.9092C20.286 20.969 20.1441 21 20.0005 21H4.00545C3.86183 21.0001 3.71987 20.9692 3.58924 20.9095C3.45861 20.8498 3.34237 20.7627 3.24843 20.654C3.15449 20.5454 3.08506 20.4178 3.04486 20.2799C3.00466 20.142 2.99463 19.9971 3.01545 19.855L4.01145 13.077C4.03685 12.905 4.10666 12.7426 4.21398 12.6058C4.32131 12.469 4.46244 12.3626 4.62345 12.297L7.62345 11.074C7.86782 10.9801 8.13925 10.9858 8.37946 11.0899C8.61967 11.1939 8.80952 11.388 8.90823 11.6304C9.00694 11.8729 9.00664 12.1444 8.9074 12.3866C8.80816 12.6288 8.61789 12.8225 8.37745 12.926L5.90745 13.933L5.16245 19H18.8405L18.1005 13.994L14.7065 12.956C14.5498 12.9082 14.4073 12.8227 14.2915 12.707L12.5475 10.963C11.5897 11.0955 10.6163 10.8766 9.8075 10.3468C8.99868 9.81696 8.40915 9.01211 8.14798 8.08115C7.88682 7.15019 7.97171 6.15614 8.38694 5.28294C8.80217 4.40975 9.51964 3.71651 10.4066 3.33151C11.2935 2.94651 12.2899 2.8958 13.2113 3.18878C14.1328 3.48176 14.9169 4.09859 15.4186 4.92512C15.9204 5.75166 16.1057 6.73196 15.9404 7.68462C15.7751 8.63728 15.2703 9.49782 14.5195 10.107H14.5205ZM12.0005 9C12.5309 9 13.0396 8.78928 13.4147 8.41421C13.7897 8.03914 14.0005 7.53043 14.0005 7C14.0005 6.46957 13.7897 5.96086 13.4147 5.58578C13.0396 5.21071 12.5309 5 12.0005 5C11.47 5 10.9613 5.21071 10.5862 5.58578C10.2112 5.96086 10.0005 6.46957 10.0005 7C10.0005 7.53043 10.2112 8.03914 10.5862 8.41421C10.9613 8.78928 11.47 9 12.0005 9Z" fill="black"/>
</svg>
