<svg width="294" height="40" viewBox="0 0 294 40" fill="none" xmlns="http://www.w3.org/2000/svg">
<path d="M65.332 16.6566C65.332 18.78 64.6051 20.4155 63.1512 21.5633C61.707 22.7015 59.6362 23.2706 56.9389 23.2706H54.4712V31.5202H52.0322V10.5447H57.4698C62.7112 10.5447 65.332 12.582 65.332 16.6566ZM54.4712 21.1759H56.6663C58.828 21.1759 60.3918 20.8268 61.3578 20.1286C62.3239 19.4304 62.8069 18.3113 62.8069 16.7714C62.8069 15.3845 62.3526 14.3515 61.4439 13.6724C60.5353 12.9933 59.1197 12.6538 57.1972 12.6538H54.4712V21.1759Z" fill="#333333"/>
<path d="M82.3626 23.6436C82.3626 26.207 81.7169 28.2108 80.4257 29.6551C79.1345 31.0898 77.3506 31.8071 75.0742 31.8071C73.6682 31.8071 72.42 31.4771 71.3296 30.8172C70.2393 30.1572 69.3976 29.2103 68.8046 27.9764C68.2115 26.7426 67.915 25.2983 67.915 23.6436C67.915 21.0803 68.5559 19.086 69.8375 17.6609C71.1192 16.2262 72.8983 15.5088 75.1747 15.5088C77.3746 15.5088 79.1201 16.2405 80.4114 17.7039C81.7122 19.1673 82.3626 21.1472 82.3626 23.6436ZM70.3827 23.6436C70.3827 25.6522 70.7845 27.1826 71.5879 28.2347C72.3913 29.2868 73.5726 29.8129 75.1316 29.8129C76.6907 29.8129 77.8719 29.2916 78.6754 28.249C79.4884 27.1969 79.8949 25.6618 79.8949 23.6436C79.8949 21.6446 79.4884 20.1286 78.6754 19.0956C77.8719 18.053 76.6811 17.5318 75.1029 17.5318C73.5439 17.5318 72.3674 18.0435 71.5735 19.0669C70.7797 20.0903 70.3827 21.6159 70.3827 23.6436Z" fill="#333333"/>
<path d="M92.2483 31.8071C89.9719 31.8071 88.2072 31.1089 86.9542 29.7124C85.7108 28.3064 85.0891 26.3217 85.0891 23.7584C85.0891 21.1281 85.7204 19.0956 86.9829 17.6609C88.255 16.2262 90.0627 15.5088 92.4061 15.5088C93.1617 15.5088 93.9173 15.5901 94.6729 15.7527C95.4286 15.9153 96.0216 16.1066 96.452 16.3266L95.7203 18.3495C95.1942 18.1391 94.6203 17.967 93.9986 17.8331C93.3769 17.6896 92.8269 17.6178 92.3487 17.6178C89.1541 17.6178 87.5568 19.6551 87.5568 23.7297C87.5568 25.6618 87.9442 27.1443 88.7189 28.1773C89.5032 29.2103 90.6605 29.7268 92.1909 29.7268C93.5013 29.7268 94.8451 29.4446 96.2224 28.8803V30.9893C95.1703 31.5345 93.8456 31.8071 92.2483 31.8071Z" fill="#333333"/>
<path d="M103.554 12.4242C101.909 12.4242 100.312 12.7877 98.7624 13.5146L97.7294 11.4486C99.3746 10.6452 101.326 10.2434 103.583 10.2434C105.659 10.2434 107.442 10.6643 108.935 11.506C110.436 12.3477 111.574 13.5481 112.349 15.1071C113.124 16.6662 113.511 18.5026 113.511 20.6164C113.511 24.2127 112.641 26.9769 110.9 28.909C109.159 30.8411 106.653 31.8071 103.382 31.8071C101.211 31.8071 99.3794 31.5345 97.8873 30.9893V28.8516C98.6811 29.0525 99.4894 29.2342 100.312 29.3968C101.134 29.5594 102.019 29.6407 102.966 29.6407C105.558 29.6407 107.514 28.952 108.834 27.5747C110.154 26.1878 110.852 24.1936 110.929 21.592H100.613V19.4112H110.9C110.69 17.2209 109.934 15.5088 108.633 14.275C107.342 13.0411 105.649 12.4242 103.554 12.4242Z" fill="#333333"/>
<path d="M119.681 15.7958V22.3811H128.49V15.7958H130.872V31.5202H128.49V24.4327H119.681V31.5202H117.299V15.7958H119.681Z" fill="#333333"/>
<path d="M141.977 31.8071C139.653 31.8071 137.816 31.0993 136.468 29.6838C135.129 28.2682 134.459 26.3026 134.459 23.7871C134.459 21.2524 135.081 19.2391 136.324 17.747C137.577 16.2549 139.256 15.5088 141.36 15.5088C143.33 15.5088 144.889 16.1592 146.037 17.46C147.185 18.7513 147.759 20.4586 147.759 22.5819V24.0884H136.927C136.975 25.9344 137.439 27.3356 138.319 28.2921C139.208 29.2486 140.456 29.7268 142.063 29.7268C143.756 29.7268 145.43 29.3729 147.085 28.6651V30.7885C146.243 31.1519 145.444 31.4102 144.689 31.5632C143.943 31.7258 143.039 31.8071 141.977 31.8071ZM141.331 17.5031C140.069 17.5031 139.06 17.9144 138.304 18.7369C137.558 19.5595 137.118 20.6977 136.984 22.1515H145.205C145.205 20.6499 144.87 19.5021 144.201 18.7082C143.531 17.9048 142.575 17.5031 141.331 17.5031Z" fill="#333333"/>
<path d="M158.563 31.8071C157.539 31.8071 156.602 31.6206 155.751 31.2476C154.909 30.865 154.201 30.2815 153.627 29.4972H153.455C153.57 30.4155 153.627 31.2858 153.627 32.1084V38.579H151.246V15.7958H153.183L153.513 17.9478H153.627C154.24 17.087 154.952 16.4653 155.765 16.0827C156.578 15.7001 157.511 15.5088 158.563 15.5088C160.648 15.5088 162.255 16.2214 163.383 17.6465C164.522 19.0717 165.091 21.0707 165.091 23.6436C165.091 26.2261 164.512 28.2347 163.355 29.6694C162.207 31.0945 160.61 31.8071 158.563 31.8071ZM158.219 17.5318C156.612 17.5318 155.45 17.9765 154.732 18.866C154.015 19.7556 153.647 21.1711 153.627 23.1128V23.6436C153.627 25.8531 153.996 27.436 154.732 28.3925C155.469 29.3394 156.65 29.8129 158.276 29.8129C159.634 29.8129 160.696 29.2629 161.461 28.163C162.236 27.063 162.623 25.547 162.623 23.6149C162.623 21.6542 162.236 20.1525 161.461 19.1099C160.696 18.0578 159.615 17.5318 158.219 17.5318Z" fill="#333333"/>
<path d="M178.147 17.8331H171.06V31.5202H168.678V15.7958H178.147V17.8331Z" fill="#333333"/>
<path d="M194.26 23.6436C194.26 26.207 193.614 28.2108 192.323 29.6551C191.031 31.0898 189.248 31.8071 186.971 31.8071C185.565 31.8071 184.317 31.4771 183.227 30.8172C182.136 30.1572 181.295 29.2103 180.702 27.9764C180.109 26.7426 179.812 25.2983 179.812 23.6436C179.812 21.0803 180.453 19.086 181.735 17.6609C183.016 16.2262 184.795 15.5088 187.072 15.5088C189.272 15.5088 191.017 16.2405 192.308 17.7039C193.609 19.1673 194.26 21.1472 194.26 23.6436ZM182.28 23.6436C182.28 25.6522 182.681 27.1826 183.485 28.2347C184.288 29.2868 185.47 29.8129 187.029 29.8129C188.588 29.8129 189.769 29.2916 190.572 28.249C191.385 27.1969 191.792 25.6618 191.792 23.6436C191.792 21.6446 191.385 20.1286 190.572 19.0956C189.769 18.053 188.578 17.5318 187 17.5318C185.441 17.5318 184.264 18.0435 183.471 19.0669C182.677 20.0903 182.28 21.6159 182.28 23.6436Z" fill="#333333"/>
<path d="M211.405 31.5202L208.794 24.8488H200.386L197.804 31.5202H195.336L203.629 10.4586H205.68L213.93 31.5202H211.405ZM208.033 22.6537L205.594 16.1544C205.279 15.3319 204.954 14.3228 204.619 13.1272C204.408 14.0454 204.107 15.0545 203.715 16.1544L201.247 22.6537H208.033Z" fill="#333333"/>
<path d="M227.589 31.5202H225.179V17.8331H220.459C220.2 21.2381 219.842 23.9401 219.382 25.9392C218.923 27.9382 218.326 29.4016 217.589 30.3294C216.862 31.2571 215.934 31.721 214.806 31.721C214.289 31.721 213.878 31.6637 213.572 31.5489V29.7842C213.782 29.8416 214.021 29.8703 214.289 29.8703C215.389 29.8703 216.264 28.7081 216.915 26.3839C217.565 24.0597 218.058 20.5303 218.393 15.7958H227.589V31.5202Z" fill="#333333"/>
<path d="M234.448 22.295H239.297C243.314 22.295 245.323 23.7727 245.323 26.7283C245.323 28.2777 244.797 29.4638 243.744 30.2863C242.702 31.1089 241.171 31.5202 239.153 31.5202H232.066V15.7958H234.448V22.295ZM234.448 24.3466V29.5259H239.039C240.301 29.5259 241.267 29.3059 241.937 28.866C242.606 28.426 242.941 27.7612 242.941 26.8717C242.941 26.0013 242.63 25.3653 242.008 24.9636C241.396 24.5523 240.382 24.3466 238.967 24.3466H234.448Z" fill="#333333"/>
<path d="M249.656 31.5202H246.873L251.392 24.8775C250.177 24.6097 249.245 24.0932 248.594 23.328C247.953 22.5532 247.633 21.5824 247.633 20.4155C247.633 18.9808 248.116 17.8522 249.082 17.0296C250.048 16.207 251.397 15.7958 253.128 15.7958H260.129V31.5202H257.748V25.2362H253.774L249.656 31.5202ZM249.957 20.4442C249.957 22.2615 251.277 23.1702 253.917 23.1702H257.748V17.8617H253.429C251.115 17.8617 249.957 18.7226 249.957 20.4442Z" fill="#333333"/>
<path d="M266.988 15.7958V22.3811H275.797V15.7958H278.179V31.5202H275.797V24.4327H266.988V31.5202H264.606V15.7958H266.988Z" fill="#333333"/>
<path d="M288.925 31.8071C286.649 31.8071 284.884 31.1089 283.631 29.7124C282.388 28.3064 281.766 26.3217 281.766 23.7584C281.766 21.1281 282.397 19.0956 283.66 17.6609C284.932 16.2262 286.74 15.5088 289.083 15.5088C289.839 15.5088 290.594 15.5901 291.35 15.7527C292.105 15.9153 292.698 16.1066 293.129 16.3266L292.397 18.3495C291.871 18.1391 291.297 17.967 290.675 17.8331C290.054 17.6896 289.504 17.6178 289.026 17.6178C285.831 17.6178 284.234 19.6551 284.234 23.7297C284.234 25.6618 284.621 27.1443 285.396 28.1773C286.18 29.2103 287.337 29.7268 288.868 29.7268C290.178 29.7268 291.522 29.4446 292.899 28.8803V30.9893C291.847 31.5345 290.522 31.8071 288.925 31.8071Z" fill="#333333"/>
<path fill-rule="evenodd" clip-rule="evenodd" d="M9.21516 30.7846C12.1932 33.7626 16.0965 35.2517 19.9997 35.2517C23.903 35.2517 27.8062 33.7626 30.7843 30.7846C33.7624 27.8065 35.2514 23.9032 35.2514 20C35.2514 16.0967 33.7624 12.1935 30.7843 9.21541C27.8062 6.23733 23.903 4.74829 19.9997 4.74829C16.0965 4.74829 12.1932 6.23733 9.21516 9.21541C6.23709 12.1935 4.74805 16.0967 4.74805 20C4.74805 23.9032 6.23708 27.8065 9.21516 30.7846ZM13.1368 26.8629C15.032 28.758 17.5159 29.7056 19.9997 29.7056C22.4836 29.7056 24.9675 28.758 26.8626 26.8629C28.7578 24.9677 29.7054 22.4839 29.7054 20C29.7054 17.5161 28.7578 15.0322 26.8626 13.1371C24.9675 11.2419 22.4836 10.2944 19.9997 10.2944C17.5159 10.2944 15.032 11.2419 13.1368 13.1371C11.2417 15.0322 10.2941 17.5161 10.2941 20C10.2941 22.4839 11.2417 24.9677 13.1368 26.8629Z" fill="white"/>
<path fill-rule="evenodd" clip-rule="evenodd" d="M27.9327 12.786C29.6702 14.6938 30.5962 17.0783 30.7101 19.4916H34.2256C34.108 16.1762 32.8391 12.8967 30.4185 10.3002L27.9327 12.786ZM29.6996 9.58119L27.2138 12.067C25.3059 10.3295 22.9214 9.40355 20.5081 9.28958V5.77409C23.8235 5.89173 27.103 7.16061 29.6996 9.58119ZM30.4189 8.8618C27.6234 6.24355 24.0826 4.87519 20.5081 4.75671C20.3387 4.7511 20.1692 4.74829 19.9997 4.74829C19.8302 4.74829 19.6608 4.7511 19.4913 4.75671C15.9169 4.87519 12.3761 6.24355 9.58053 8.8618C9.45727 8.97724 9.33546 9.09511 9.21516 9.21541C9.09487 9.33571 8.977 9.45751 8.86156 9.58077C6.24331 12.3763 4.87495 15.9171 4.75647 19.4916C4.75085 19.661 4.74805 19.8305 4.74805 20C4.74805 20.1695 4.75085 20.339 4.75647 20.5084C4.87494 24.0829 6.24331 27.6236 8.86156 30.4192C8.977 30.5424 9.09486 30.6643 9.21516 30.7846C9.33546 30.9049 9.45727 31.0227 9.58053 31.1382C12.3761 33.7564 15.9169 35.1248 19.4913 35.2433C19.6608 35.2489 19.8302 35.2517 19.9997 35.2517C20.1692 35.2517 20.3387 35.2489 20.5081 35.2433C24.0826 35.1248 27.6234 33.7564 30.4189 31.1382C30.5422 31.0227 30.664 30.9049 30.7843 30.7846C30.9046 30.6643 31.0225 30.5424 31.1379 30.4192C33.7562 27.6236 35.1245 24.0829 35.243 20.5084C35.2486 20.339 35.2514 20.1695 35.2514 20C35.2514 19.8305 35.2486 19.661 35.243 19.4916C35.1245 15.9171 33.7562 12.3763 31.1379 9.58077C31.0225 9.45752 30.9046 9.33571 30.7843 9.21541C30.664 9.09511 30.5422 8.97724 30.4189 8.8618ZM34.2256 20.5084H30.7101C30.5962 22.9217 29.6702 25.3062 27.9327 27.214L30.4185 29.6998C32.8391 27.1032 34.108 23.8237 34.2256 20.5084ZM29.6996 30.4188L27.2138 27.933C25.3059 29.6705 22.9214 30.5964 20.5081 30.7104V34.2259C23.8235 34.1082 27.103 32.8393 29.6996 30.4188ZM19.4913 34.2259V30.7104C17.078 30.5964 14.6935 29.6705 12.7857 27.933L10.2999 30.4188C12.8965 32.8393 16.176 34.1082 19.4913 34.2259ZM9.58094 29.6998L12.0667 27.214C10.3292 25.3062 9.40331 22.9217 9.28933 20.5084H5.77384C5.89149 23.8237 7.16037 27.1032 9.58094 29.6998ZM5.77384 19.4916H9.28934C9.40331 17.0783 10.3293 14.6938 12.0667 12.786L9.58094 10.3002C7.16037 12.8967 5.89149 16.1762 5.77384 19.4916ZM10.2999 9.58119L12.7857 12.067C14.6935 10.3295 17.078 9.40355 19.4913 9.28958V5.77409C16.176 5.89173 12.8965 7.16061 10.2999 9.58119ZM19.9997 29.7056C17.5159 29.7056 15.032 28.758 13.1368 26.8629C11.2417 24.9677 10.2941 22.4839 10.2941 20C10.2941 17.5161 11.2417 15.0322 13.1368 13.1371C15.032 11.2419 17.5159 10.2944 19.9997 10.2944C22.4836 10.2944 24.9675 11.2419 26.8626 13.1371C28.7578 15.0322 29.7054 17.5161 29.7054 20C29.7054 22.4839 28.7578 24.9677 26.8626 26.8629C24.9675 28.758 22.4836 29.7056 19.9997 29.7056Z" fill="#333333"/>
<path fill-rule="evenodd" clip-rule="evenodd" d="M10.9016 25.2533C12.3502 27.7625 14.6775 29.448 17.2704 30.1457C19.8706 30.8454 22.7379 30.5517 25.254 29.099C27.7667 27.6484 29.4534 25.3166 30.1494 22.7193C30.8453 20.122 30.5504 17.2592 29.0997 14.7466C27.647 12.2304 25.3108 10.5425 22.7091 9.84834C20.1147 9.15613 17.2564 9.45223 14.7473 10.9009C12.2347 12.3516 10.5479 14.6833 9.85195 17.2806C9.15601 19.8779 9.4509 22.7407 10.9016 25.2533ZM14.2103 23.343C15.1315 24.9385 16.6108 26.0106 18.2593 26.4553C19.915 26.9019 21.7412 26.7155 23.3437 25.7903C24.9427 24.8671 26.0161 23.3833 26.4589 21.7305C26.9018 20.0776 26.7142 18.2559 25.791 16.6569C24.8658 15.0544 23.3774 13.9798 21.7203 13.5388C20.0703 13.0996 18.2531 13.2885 16.6576 14.2096C15.0587 15.1328 13.9853 16.6167 13.5424 18.2695C13.0995 19.9223 13.2872 21.7441 14.2103 23.343Z" fill="url(#paint0_linear)"/>
<path fill-rule="evenodd" clip-rule="evenodd" d="M26.9114 16.5971C27.6851 18.1647 27.8766 19.8866 27.5565 21.4982L29.2858 21.9616C29.7212 19.9044 29.4785 17.699 28.4618 15.702L26.9114 16.5971ZM27.9534 14.8214L26.403 15.7165C25.4301 14.2594 24.0304 13.2312 22.4704 12.7037L22.9337 10.9745C24.9373 11.6248 26.7301 12.939 27.9534 14.8214ZM28.8351 14.3124C27.4699 12.1881 25.4509 10.7103 23.1972 9.99121C23.0428 9.94196 22.8873 9.89627 22.7309 9.85417C22.7236 9.85222 22.7164 9.85027 22.7091 9.84834C22.5453 9.80464 22.3805 9.76487 22.2147 9.72909C19.9096 9.23146 17.4309 9.50374 15.1936 10.6571C15.0442 10.7342 14.8958 10.8152 14.7487 10.9001C14.7482 10.9004 14.7478 10.9006 14.7473 10.9009C14.7468 10.9011 14.7464 10.9014 14.7459 10.9017C14.5988 10.9866 14.4545 11.0746 14.3131 11.1655C12.1921 12.5286 10.7157 14.5433 9.99534 16.7927C9.94363 16.9542 9.89582 17.1169 9.85195 17.2806C9.80807 17.4444 9.76814 17.6092 9.73218 17.7749C9.23129 20.0831 9.5026 22.5661 10.6578 24.807C10.7351 24.9569 10.8164 25.1057 10.9016 25.2533C10.9868 25.4009 11.0751 25.5457 11.1662 25.6876C12.5271 27.8051 14.5376 29.2802 16.7827 30.0018C16.9441 30.0537 17.1067 30.1017 17.2704 30.1457C17.2777 30.1477 17.2849 30.1496 17.2922 30.1516C17.4487 30.1933 17.6062 30.2315 17.7645 30.266C20.0759 30.7702 22.5632 30.4999 24.8077 29.3428C24.9576 29.2655 25.1064 29.1843 25.254 29.099C25.4016 29.0138 25.5464 28.9256 25.6883 28.8344C27.8092 27.4713 29.2857 25.4566 30.006 23.2072C30.0577 23.0457 30.1055 22.883 30.1494 22.7193C30.1932 22.5556 30.2332 22.3908 30.2691 22.2251C30.77 19.9169 30.4987 17.4338 29.3435 15.1929C29.2662 15.043 29.185 14.8942 29.0997 14.7466C29.0145 14.599 28.9263 14.4542 28.8351 14.3124ZM29.0226 22.9437L27.2933 22.4804C26.7647 24.0361 25.7379 25.4316 24.2841 26.4023L25.1792 27.9527C27.0583 26.7316 28.3711 24.943 29.0226 22.9437ZM24.2987 28.4611L23.4036 26.9107C21.8324 27.6861 20.1062 27.8768 18.4913 27.5536L18.028 29.2827C20.0883 29.7214 22.2981 29.4797 24.2987 28.4611ZM17.0462 29.0184L17.5096 27.289C15.9581 26.7593 14.5668 25.7339 13.5983 24.2834L12.0479 25.1785C13.2668 27.0542 15.0513 28.3657 17.0462 29.0184ZM11.5395 24.298L13.0899 23.4029C12.3163 21.8353 12.1247 20.1134 12.4448 18.5017L10.7156 18.0384C10.2801 20.0955 10.5228 22.3009 11.5395 24.298ZM10.9787 17.0562L12.708 17.5196C13.2366 15.9638 14.2634 14.5683 15.7172 13.5976L14.8221 12.0472C12.9431 13.2683 11.6302 15.057 10.9787 17.0562ZM15.7027 11.5388L16.5978 13.0892C18.1618 12.3173 19.8794 12.1249 21.4878 12.4419L21.9512 10.7125C19.8972 10.2803 17.6961 10.5239 15.7027 11.5388ZM18.2811 26.4611C19.931 26.9003 21.7483 26.7114 23.3437 25.7903C24.9427 24.8671 26.0161 23.3833 26.4589 21.7305C26.9018 20.0776 26.7142 18.2559 25.791 16.6569C24.8699 15.0615 23.3905 13.9893 21.742 13.5446C21.7348 13.5427 21.7275 13.5407 21.7203 13.5388C20.0703 13.0996 18.2531 13.2885 16.6576 14.2096C15.0587 15.1328 13.9853 16.6167 13.5424 18.2695C13.0995 19.9223 13.2872 21.7441 14.2103 23.343C15.1315 24.9384 16.6108 26.0106 18.2593 26.4553C18.2665 26.4573 18.2738 26.4592 18.2811 26.4611Z" fill="#333333"/>
<path d="M27.4567 20.0001C27.4567 24.1182 24.1184 27.4565 20.0003 27.4565C15.8823 27.4565 12.5439 24.1182 12.5439 20.0001C12.5439 15.8821 15.8823 12.5437 20.0003 12.5437C24.1184 12.5437 27.4567 15.8821 27.4567 20.0001Z" fill="#333333"/>
<path fill-rule="evenodd" clip-rule="evenodd" d="M20.0003 26.4397C23.5568 26.4397 26.4399 23.5566 26.4399 20.0001C26.4399 16.4436 23.5568 13.5605 20.0003 13.5605C16.4438 13.5605 13.5607 16.4436 13.5607 20.0001C13.5607 23.5566 16.4438 26.4397 20.0003 26.4397ZM20.0003 27.4565C24.1184 27.4565 27.4567 24.1182 27.4567 20.0001C27.4567 15.8821 24.1184 12.5437 20.0003 12.5437C15.8823 12.5437 12.5439 15.8821 12.5439 20.0001C12.5439 24.1182 15.8823 27.4565 20.0003 27.4565Z" fill="#333333"/>
<path fill-rule="evenodd" clip-rule="evenodd" d="M10.0017 37.3176C14.7838 40.0786 20.2323 40.6398 25.1755 39.3153C30.1187 37.9908 34.5567 34.7805 37.3176 29.9983C40.0786 25.2162 40.6398 19.7677 39.3153 14.8245C37.9908 9.88127 34.7805 5.44335 29.9983 2.68238C25.2162 -0.0785792 19.7677 -0.639822 14.8245 0.684709C9.88127 2.00924 5.44335 5.21954 2.68238 10.0017C-0.078579 14.7838 -0.639822 20.2323 0.684709 25.1755C2.00924 30.1187 5.21954 34.5567 10.0017 37.3176ZM12.7131 32.6213C16.1984 34.6335 20.1693 35.0426 23.772 34.0772C27.3747 33.1119 30.6091 30.7722 32.6213 27.2869C34.6335 23.8016 35.0426 19.8307 34.0772 16.228C33.1119 12.6253 30.7722 9.39091 27.2869 7.37869C23.8016 5.36646 19.8307 4.95742 16.228 5.92275C12.6253 6.88809 9.39091 9.2278 7.37869 12.7131C5.36646 16.1984 4.95742 20.1693 5.92275 23.772C6.88809 27.3747 9.2278 30.6091 12.7131 32.6213Z" fill="url(#paint1_linear)"/>
<path fill-rule="evenodd" clip-rule="evenodd" d="M28.2315 6.75937C31.5648 8.829 33.8578 11.9714 34.9198 15.4759L38.195 14.5983C36.9061 10.2535 34.0699 6.36232 29.9269 3.82291L28.2315 6.75937ZM29.0463 3.31452L27.351 6.25098C23.892 4.39911 20.0241 3.98444 16.4581 4.81701L15.5805 1.54179C19.9877 0.485699 24.7756 0.996236 29.0463 3.31452ZM29.5549 2.43368C29.7033 2.5145 29.8511 2.5974 29.9983 2.68238C30.1455 2.76737 30.2912 2.85394 30.4354 2.94207C34.8211 5.62221 37.821 9.74025 39.1775 14.3351C39.2255 14.4976 39.2714 14.6608 39.3153 14.8245C39.3592 14.9882 39.401 15.1524 39.4407 15.3172C40.5633 19.9747 40.0244 25.041 37.5663 29.5549C37.4855 29.7033 37.4026 29.8511 37.3176 29.9983C37.2326 30.1455 37.1461 30.2912 37.0579 30.4354C34.3778 34.8211 30.2597 37.821 25.6649 39.1775C25.5024 39.2255 25.3392 39.2714 25.1755 39.3153C25.0118 39.3592 24.8476 39.401 24.6828 39.4407C20.0253 40.5633 14.959 40.0244 10.4451 37.5663C10.2967 37.4855 10.1489 37.4026 10.0017 37.3176C9.85447 37.2326 9.70877 37.1461 9.56456 37.0579C5.17885 34.3778 2.17899 30.2598 0.822494 25.6649C0.774505 25.5024 0.728573 25.3392 0.684709 25.1755C0.640844 25.0118 0.599048 24.8476 0.559332 24.6828C-0.563322 20.0253 -0.0243833 14.959 2.43368 10.4451C2.5145 10.2967 2.5974 10.1489 2.68238 10.0017C2.76737 9.85447 2.85394 9.70877 2.94207 9.56456C5.62221 5.17885 9.74026 2.17899 14.3351 0.822494C14.4976 0.774505 14.6608 0.728573 14.8245 0.684709C14.9882 0.640845 15.1524 0.599049 15.3172 0.559332C19.9747 -0.563322 25.041 -0.0243838 29.5549 2.43368ZM14.5983 1.80496C10.2535 3.09395 6.36232 5.93006 3.82291 10.0731L6.75937 11.7685C8.829 8.43523 11.9714 6.14217 15.4759 5.08017L14.5983 1.80496ZM6.25098 12.649L3.31452 10.9537C0.996236 15.2244 0.485699 20.0123 1.54179 24.4195L4.817 23.5419C3.98444 19.9759 4.39911 16.108 6.25098 12.649ZM5.08017 24.5241L1.80496 25.4017C3.09395 29.7465 5.93006 33.6377 10.0731 36.1771L11.7685 33.2406C8.43523 31.171 6.14217 28.0286 5.08017 24.5241ZM12.649 33.749L10.9537 36.6855C15.2244 39.0038 20.0123 39.5143 24.4195 38.4582L23.5419 35.183C19.9759 36.0156 16.108 35.6009 12.649 33.749ZM24.5241 34.9198L25.4017 38.195C29.7465 36.9061 33.6377 34.0699 36.1771 29.9269L33.2406 28.2315C31.171 31.5648 28.0286 33.8578 24.5241 34.9198ZM33.749 27.351L36.6855 29.0463C39.0038 24.7756 39.5143 19.9877 38.4582 15.5805L35.183 16.4581C36.0156 20.0241 35.6009 23.892 33.749 27.351ZM23.772 34.0772C20.1693 35.0426 16.1984 34.6335 12.7131 32.6213C9.2278 30.6091 6.88809 27.3747 5.92275 23.772C4.95742 20.1693 5.36646 16.1984 7.37869 12.7131C9.39091 9.2278 12.6253 6.88809 16.228 5.92275C19.8307 4.95742 23.8016 5.36646 27.2869 7.37869C30.7722 9.39091 33.1119 12.6253 34.0772 16.228C35.0426 19.8307 34.6335 23.8016 32.6213 27.2869C30.6091 30.7722 27.3747 33.1119 23.772 34.0772Z" fill="#333333"/>
<defs>
<linearGradient id="paint0_linear" x1="9.49219" y1="30.5084" x2="31.9524" y2="28.8324" gradientUnits="userSpaceOnUse">
<stop offset="0.0297586" stop-color="#F7BB11"/>
<stop offset="1" stop-color="#F1971E"/>
</linearGradient>
<linearGradient id="paint1_linear" x1="-2.98023e-07" y1="40" x2="42.7469" y2="36.8101" gradientUnits="userSpaceOnUse">
<stop offset="0.0297586" stop-color="#F7BB11"/>
<stop offset="1" stop-color="#F1971E"/>
</linearGradient>
</defs>
</svg>
