<svg width="17" height="14" viewBox="0 0 17 14" fill="none" xmlns="http://www.w3.org/2000/svg">
<path d="M14 4.87241C13.6835 4.76021 13.396 4.57876 13.1586 4.34131C12.9211 4.10387 12.7397 3.81641 12.6275 3.49991H2.75C2.55109 3.49991 2.36032 3.42089 2.21967 3.28024C2.07902 3.13959 2 2.94882 2 2.74991C2 2.551 2.07902 2.36023 2.21967 2.21958C2.36032 2.07893 2.55109 1.99991 2.75 1.99991H12.6275C12.7543 1.6415 12.9698 1.32104 13.2539 1.06843C13.538 0.815827 13.8815 0.639306 14.2523 0.555339C14.6231 0.471372 15.0091 0.482695 15.3743 0.588252C15.7396 0.693809 16.0721 0.890159 16.3409 1.15899C16.6098 1.42781 16.8061 1.76035 16.9117 2.12558C17.0172 2.49081 17.0285 2.87683 16.9446 3.24761C16.8606 3.6184 16.6841 3.96188 16.4315 4.246C16.1789 4.53012 15.8584 4.74563 15.5 4.87241V13.2499C15.5 13.4488 15.421 13.6396 15.2803 13.7802C15.1397 13.9209 14.9489 13.9999 14.75 13.9999H1.25C1.05109 13.9999 0.860322 13.9209 0.71967 13.7802C0.579018 13.6396 0.5 13.4488 0.5 13.2499V4.99991C0.5 4.86603 0.535835 4.73459 0.603786 4.61924C0.671738 4.50389 0.769327 4.40883 0.886423 4.34393C1.00352 4.27903 1.13585 4.24665 1.26969 4.25017C1.40352 4.25368 1.53397 4.29296 1.6475 4.36391L7.23725 7.85741L11.3337 5.12591C11.4992 5.01552 11.7018 4.97538 11.8969 5.01434C12.092 5.0533 12.2636 5.16817 12.374 5.33366C12.4844 5.49916 12.5245 5.70173 12.4856 5.89681C12.4466 6.0919 12.3317 6.26351 12.1662 6.37391L7.66625 9.37391C7.54615 9.45402 7.40549 9.49776 7.26114 9.49989C7.1168 9.50201 6.97491 9.46244 6.8525 9.38591L2 6.35291V12.4999H14V4.87241ZM14.75 3.49991C14.9489 3.49991 15.1397 3.42089 15.2803 3.28024C15.421 3.13959 15.5 2.94882 15.5 2.74991C15.5 2.551 15.421 2.36023 15.2803 2.21958C15.1397 2.07893 14.9489 1.99991 14.75 1.99991C14.5511 1.99991 14.3603 2.07893 14.2197 2.21958C14.079 2.36023 14 2.551 14 2.74991C14 2.94882 14.079 3.13959 14.2197 3.28024C14.3603 3.42089 14.5511 3.49991 14.75 3.49991Z" fill="#4F4F4F"/>
</svg>
