<svg width="24" height="24" viewBox="0 0 24 24" fill="none" xmlns="http://www.w3.org/2000/svg">
<g clip-path="url(#clip0)">
<path d="M20 7.82996C19.578 7.68036 19.1947 7.43843 18.8781 7.12183C18.5615 6.80524 18.3196 6.42196 18.17 5.99996H5C4.73478 5.99996 4.48043 5.89461 4.29289 5.70707C4.10536 5.51953 4 5.26518 4 4.99996C4 4.73475 4.10536 4.48039 4.29289 4.29286C4.48043 4.10532 4.73478 3.99996 5 3.99996H18.17C18.339 3.52208 18.6264 3.0948 19.0052 2.75799C19.384 2.42118 19.842 2.18582 20.3364 2.07387C20.8308 1.96191 21.3455 1.97701 21.8324 2.11775C22.3194 2.25849 22.7628 2.52029 23.1212 2.87873C23.4797 3.23716 23.7415 3.68055 23.8822 4.16752C24.023 4.65449 24.0381 5.16918 23.9261 5.66357C23.8141 6.15795 23.5788 6.61592 23.242 6.99475C22.9052 7.37358 22.4779 7.66092 22 7.82996V19C22 19.2652 21.8946 19.5195 21.7071 19.7071C21.5196 19.8946 21.2652 20 21 20H3C2.73478 20 2.48043 19.8946 2.29289 19.7071C2.10536 19.5195 2 19.2652 2 19V7.99996C2 7.82146 2.04778 7.64621 2.13838 7.4924C2.22898 7.3386 2.3591 7.21185 2.51523 7.12532C2.67136 7.03878 2.8478 6.99562 3.02625 7.00031C3.20469 7.00499 3.37863 7.05736 3.53 7.15196L10.983 11.81L16.445 8.16796C16.6657 8.02077 16.9358 7.96726 17.1959 8.01921C17.456 8.07115 17.6848 8.2243 17.832 8.44496C17.9792 8.66562 18.0327 8.93572 17.9808 9.19583C17.9288 9.45594 17.7757 9.68477 17.555 9.83196L11.555 13.832C11.3949 13.9388 11.2073 13.9971 11.0149 13.9999C10.8224 14.0028 10.6332 13.95 10.47 13.848L4 9.80396V18H20V7.82996ZM21 5.99996C21.2652 5.99996 21.5196 5.89461 21.7071 5.70707C21.8946 5.51953 22 5.26518 22 4.99996C22 4.73475 21.8946 4.48039 21.7071 4.29286C21.5196 4.10532 21.2652 3.99996 21 3.99996C20.7348 3.99996 20.4804 4.10532 20.2929 4.29286C20.1054 4.48039 20 4.73475 20 4.99996C20 5.26518 20.1054 5.51953 20.2929 5.70707C20.4804 5.89461 20.7348 5.99996 21 5.99996Z" fill="#777777"/>
</g>
<defs>
<clipPath id="clip0">
<rect width="24" height="24" fill="white"/>
</clipPath>
</defs>
</svg>
