<svg width="16" height="17" viewBox="0 0 16 17" fill="none" xmlns="http://www.w3.org/2000/svg">
<path d="M8.66797 5.94667C9.11296 6.10394 9.48803 6.41347 9.72687 6.82054C9.96572 7.22761 10.053 7.70602 9.97318 8.1712C9.89339 8.63637 9.65172 9.05837 9.29088 9.36259C8.93004 9.66681 8.47327 9.83366 8.0013 9.83366C7.52933 9.83366 7.07256 9.66681 6.71172 9.36259C6.35088 9.05837 6.10921 8.63637 6.02943 8.1712C5.94964 7.70602 6.03688 7.22761 6.27573 6.82054C6.51457 6.41347 6.88964 6.10394 7.33463 5.94667V3.16667C7.33463 2.98997 7.40478 2.82051 7.52966 2.6955C7.65454 2.5705 7.82394 2.50018 8.00063 2.5C9.40063 2.49867 10.7473 3.022 11.7626 3.99534C13.8586 6.00467 13.8586 9.27534 11.752 11.294L8.45197 14.3247C8.32899 14.4375 8.16818 14.5001 8.0013 14.5001C7.83442 14.5001 7.67361 14.4375 7.55063 14.3247L4.23997 11.2847C2.14397 9.27534 2.14397 6.00467 4.23997 3.99534C4.36763 3.87298 4.53866 3.80635 4.71544 3.8101C4.89223 3.81385 5.06028 3.88768 5.18264 4.01534C5.30499 4.14299 5.37162 4.31403 5.36787 4.49081C5.36412 4.6676 5.29029 4.83565 5.16264 4.958C3.61397 6.44267 3.61397 8.83734 5.15264 10.312L8.0013 12.9287L10.84 10.322C12.3886 8.83734 12.3886 6.44267 10.84 4.958C10.2426 4.38674 9.48462 4.01215 8.66797 3.88467V5.94734V5.94667ZM8.0013 8.5C8.17811 8.5 8.34768 8.42976 8.47271 8.30474C8.59773 8.17972 8.66797 8.01015 8.66797 7.83334C8.66797 7.65653 8.59773 7.48696 8.47271 7.36193C8.34768 7.23691 8.17811 7.16667 8.0013 7.16667C7.82449 7.16667 7.65492 7.23691 7.5299 7.36193C7.40487 7.48696 7.33463 7.65653 7.33463 7.83334C7.33463 8.01015 7.40487 8.17972 7.5299 8.30474C7.65492 8.42976 7.82449 8.5 8.0013 8.5Z" fill="#F1971E"/>
</svg>
