<svg width="12" height="16" viewBox="0 0 12 16" fill="none" xmlns="http://www.w3.org/2000/svg">
<path d="M5.25 13.8725C4.74938 13.6956 4.32743 13.3474 4.05873 12.8894C3.79003 12.4314 3.69188 11.8932 3.78164 11.3699C3.8714 10.8466 4.14328 10.3718 4.54922 10.0296C4.95517 9.68735 5.46904 9.49963 6 9.49963C6.53096 9.49963 7.04483 9.68735 7.45078 10.0296C7.85672 10.3718 8.1286 10.8466 8.21836 11.3699C8.30812 11.8932 8.20997 12.4314 7.94127 12.8894C7.67257 13.3474 7.25062 13.6956 6.75 13.8725V14H9C9.19891 14 9.38968 13.921 9.53033 13.7803C9.67098 13.6397 9.75 13.4489 9.75 13.25V2.75C9.75 2.55109 9.67098 2.36032 9.53033 2.21967C9.38968 2.07902 9.19891 2 9 2H3C2.80109 2 2.61032 2.07902 2.46967 2.21967C2.32902 2.36032 2.25 2.55109 2.25 2.75V13.25C2.25 13.4489 2.32902 13.6397 2.46967 13.7803C2.61032 13.921 2.80109 14 3 14C3.19891 14 3.38968 14.079 3.53033 14.2197C3.67098 14.3603 3.75 14.5511 3.75 14.75C3.75 14.9489 3.67098 15.1397 3.53033 15.2803C3.38968 15.421 3.19891 15.5 3 15.5C2.40326 15.5 1.83097 15.2629 1.40901 14.841C0.987053 14.419 0.75 13.8467 0.75 13.25V2.75C0.75 2.15326 0.987053 1.58097 1.40901 1.15901C1.83097 0.737053 2.40326 0.5 3 0.5H9C9.59674 0.5 10.169 0.737053 10.591 1.15901C11.0129 1.58097 11.25 2.15326 11.25 2.75V13.25C11.25 13.8467 11.0129 14.419 10.591 14.841C10.169 15.2629 9.59674 15.5 9 15.5H6C5.80109 15.5 5.61032 15.421 5.46967 15.2803C5.32902 15.1397 5.25 14.9489 5.25 14.75V13.8725ZM6 12.5C6.19891 12.5 6.38968 12.421 6.53033 12.2803C6.67098 12.1397 6.75 11.9489 6.75 11.75C6.75 11.5511 6.67098 11.3603 6.53033 11.2197C6.38968 11.079 6.19891 11 6 11C5.80109 11 5.61032 11.079 5.46967 11.2197C5.32902 11.3603 5.25 11.5511 5.25 11.75C5.25 11.9489 5.32902 12.1397 5.46967 12.2803C5.61032 12.421 5.80109 12.5 6 12.5Z" fill="#4F4F4F"/>
</svg>
