<svg width="10" height="17" viewBox="0 0 10 17" fill="none" xmlns="http://www.w3.org/2000/svg">
<path d="M0.817732 1.70699C0.635574 1.51839 0.53478 1.26578 0.537058 1.00359C0.539336 0.741391 0.644505 0.490578 0.829913 0.30517C1.01532 0.119762 1.26613 0.0145931 1.52833 0.0123138C1.79053 0.0100345 2.04313 0.110829 2.23173 0.292988L9.23173 7.29299C10.1729 8.23417 8.69079 9.58026 7.81763 8.70709C5.48429 6.37376 3.15107 4.04032 0.817732 1.70699ZM5.36073 10.253C5.45796 10.1606 5.57278 10.0888 5.69834 10.0417C5.82391 9.99459 5.95767 9.97324 6.09166 9.97889C6.22565 9.98455 6.35713 10.0171 6.47828 10.0746C6.59943 10.1321 6.70778 10.2134 6.79687 10.3136C6.88597 10.4139 6.95399 10.531 6.9969 10.6581C7.03981 10.7851 7.05672 10.9195 7.04663 11.0532C7.03654 11.187 6.99966 11.3173 6.93817 11.4365C6.87669 11.5557 6.79186 11.6613 6.68873 11.747L2.18873 15.747C2.0915 15.8394 1.97669 15.9112 1.85112 15.9583C1.72555 16.0054 1.59179 16.0267 1.45781 16.0211C1.32382 16.0154 1.19234 15.9829 1.07118 15.9254C0.950033 15.8679 0.841687 15.7866 0.752591 15.6863C0.663495 15.5861 0.59547 15.469 0.552563 15.3419C0.509657 15.2149 0.492745 15.0805 0.502834 14.9467C0.512923 14.813 0.549808 14.6827 0.611293 14.5635C0.672777 14.4443 0.757606 14.3387 0.860733 14.253L5.36073 10.253Z" fill="#333333"/>
</svg>
