<svg width="10" height="17" viewBox="0 0 10 17" fill="none" xmlns="http://www.w3.org/2000/svg">
<path d="M9.18227 1.70699C9.36443 1.51839 9.46522 1.26578 9.46294 1.00359C9.46066 0.741391 9.35549 0.490578 9.17009 0.30517C8.98468 0.119762 8.73387 0.0145931 8.47167 0.0123138C8.20947 0.0100345 7.95687 0.110829 7.76827 0.292988L0.768267 7.29299C-0.17291 8.23417 1.30921 9.58026 2.18237 8.70709C4.51571 6.37376 6.84893 4.04032 9.18227 1.70699ZM4.63927 10.253C4.54204 10.1606 4.42722 10.0888 4.30166 10.0417C4.17609 9.99459 4.04233 9.97324 3.90834 9.97889C3.77435 9.98455 3.64287 10.0171 3.52172 10.0746C3.40057 10.1321 3.29222 10.2134 3.20313 10.3136C3.11403 10.4139 3.04601 10.531 3.0031 10.6581C2.96019 10.7851 2.94328 10.9195 2.95337 11.0532C2.96346 11.187 3.00034 11.3173 3.06183 11.4365C3.12331 11.5557 3.20814 11.6613 3.31127 11.747L7.81127 15.747C7.9085 15.8394 8.02331 15.9112 8.14888 15.9583C8.27445 16.0054 8.40821 16.0267 8.54219 16.0211C8.67618 16.0154 8.80766 15.9829 8.92882 15.9254C9.04997 15.8679 9.15831 15.7866 9.24741 15.6863C9.33651 15.5861 9.40453 15.469 9.44744 15.3419C9.49034 15.2149 9.50726 15.0805 9.49717 14.9467C9.48708 14.813 9.45019 14.6827 9.38871 14.5635C9.32722 14.4443 9.24239 14.3387 9.13927 14.253L4.63927 10.253Z" fill="#333333"/>
</svg>
