<svg width="12" height="16" viewBox="0 0 12 16" fill="none" xmlns="http://www.w3.org/2000/svg">
<path d="M5.622 15.398C2.64225 13.6603 0 9.31025 0 6.5C0 2.81375 2.85 0.5 6 0.5C9.15 0.5 12 2.81375 12 6.5C12 9.31025 9.35775 13.6603 6.378 15.398C6.26328 15.4649 6.13283 15.5002 6 15.5002C5.86717 15.5002 5.73672 15.4649 5.622 15.398ZM10.5 6.5C10.5 3.719 8.38275 2 6 2C3.61725 2 1.5 3.719 1.5 6.5C1.5 8.64875 3.618 12.2443 6 13.8635C8.382 12.2435 10.5 8.64875 10.5 6.5ZM5.901 5.003C5.70249 5.01593 5.50697 4.94947 5.35745 4.81824C5.20794 4.68701 5.11668 4.50176 5.10375 4.30325C5.09082 4.10474 5.15728 3.90922 5.28851 3.7597C5.41974 3.61019 5.60499 3.51893 5.8035 3.506C6.46283 3.46299 7.11792 3.63886 7.66707 4.00629C8.21621 4.37372 8.6287 4.91217 8.84048 5.53804C9.05227 6.16391 9.05151 6.8422 8.83833 7.46759C8.62514 8.09299 8.21145 8.63051 7.66148 8.99671C7.11152 9.36292 6.45604 9.53731 5.7968 9.49283C5.13757 9.44835 4.51146 9.18748 4.01567 8.75071C3.51989 8.31394 3.18216 7.72572 3.05492 7.07735C2.92768 6.42898 3.01805 5.75675 3.312 5.165C3.35588 5.07675 3.41671 4.99801 3.49102 4.93327C3.56533 4.86853 3.65166 4.81906 3.74509 4.78769C3.83851 4.75631 3.93721 4.74365 4.03553 4.75041C4.13385 4.75718 4.22988 4.78325 4.31812 4.82712C4.40637 4.871 4.48512 4.93183 4.54985 5.00614C4.61459 5.08045 4.66406 5.16678 4.69544 5.26021C4.72681 5.35364 4.73948 5.45233 4.73271 5.55065C4.72594 5.64898 4.69988 5.745 4.656 5.83325C4.5092 6.12922 4.46423 6.46538 4.52805 6.78953C4.59188 7.11369 4.76094 7.4077 5.00898 7.62593C5.25703 7.84415 5.57018 7.97439 5.89982 7.99641C6.22946 8.01843 6.55716 7.931 6.83202 7.7477C7.10688 7.5644 7.31355 7.29549 7.41992 6.9827C7.52629 6.66992 7.52642 6.33077 7.4203 6.0179C7.31417 5.70503 7.10772 5.43595 6.833 5.25244C6.55828 5.06892 6.23066 4.98124 5.901 5.003Z" fill="#4F4F4F"/>
</svg>
