<svg width="24" height="24" viewBox="0 0 24 24" fill="none" xmlns="http://www.w3.org/2000/svg">
<path d="M11.496 21.864C7.523 19.547 4 13.747 4 10C4 5.085 7.8 2 12 2C16.2 2 20 5.085 20 10C20 13.747 16.477 19.547 12.504 21.864C12.351 21.9533 12.1771 22.0003 12 22.0003C11.8229 22.0003 11.649 21.9533 11.496 21.864ZM18 10C18 6.292 15.177 4 12 4C8.823 4 6 6.292 6 10C6 12.865 8.824 17.659 12 19.818C15.176 17.658 18 12.865 18 10ZM11.868 8.004C11.6033 8.02124 11.3426 7.93263 11.1433 7.75765C10.9439 7.58268 10.8222 7.33569 10.805 7.071C10.7878 6.80631 10.8764 6.54562 11.0513 6.34627C11.2263 6.14692 11.4733 6.02524 11.738 6.008C12.6171 5.95066 13.4906 6.18514 14.2228 6.67505C14.955 7.16496 15.5049 7.88289 15.7873 8.71739C16.0697 9.55188 16.0687 10.4563 15.7844 11.2901C15.5002 12.124 14.9486 12.8407 14.2153 13.329C13.482 13.8172 12.608 14.0498 11.7291 13.9904C10.8501 13.9311 10.0153 13.5833 9.35423 13.0009C8.69318 12.4186 8.24288 11.6343 8.07323 10.7698C7.90358 9.90531 8.02407 9.009 8.416 8.22C8.4745 8.10234 8.55561 7.99735 8.65469 7.91103C8.75377 7.82471 8.86888 7.75875 8.99345 7.71692C9.11802 7.67508 9.24961 7.6582 9.3807 7.66722C9.5118 7.67624 9.63984 7.711 9.7575 7.7695C9.87516 7.828 9.98015 7.90911 10.0665 8.00819C10.1528 8.10727 10.2188 8.22238 10.2606 8.34695C10.3024 8.47152 10.3193 8.60311 10.3103 8.7342C10.3013 8.8653 10.2665 8.99334 10.208 9.111C10.0123 9.50563 9.9523 9.95384 10.0374 10.386C10.1225 10.8182 10.3479 11.2103 10.6786 11.5012C11.0094 11.7922 11.4269 11.9659 11.8664 11.9952C12.306 12.0246 12.7429 11.908 13.1094 11.6636C13.4758 11.4192 13.7514 11.0607 13.8932 10.6436C14.0351 10.2266 14.0352 9.77436 13.8937 9.3572C13.7522 8.94004 13.477 8.58127 13.1107 8.33659C12.7444 8.0919 12.3075 7.97499 11.868 8.004Z" fill="#F1971E"/>
</svg>
