<svg width="24" height="24" viewBox="0 0 24 24" fill="none" xmlns="http://www.w3.org/2000/svg">
<path d="M15.9382 14.743L14.5592 16.121C14.3719 16.3082 14.118 16.4134 13.8532 16.4134C13.5884 16.4134 13.3344 16.3082 13.1472 16.121C12.9599 15.9338 12.8547 15.6798 12.8547 15.415C12.8547 15.1502 12.9599 14.8962 13.1472 14.709L14.9042 12.953C15.0204 12.8367 15.1635 12.7509 15.3209 12.7033C15.4783 12.6557 15.645 12.6477 15.8062 12.68L20.1972 13.558C20.4238 13.6031 20.6277 13.7255 20.7741 13.9042C20.9206 14.083 21.0004 14.3069 21.0002 14.538V19.805C21.0002 20.0295 20.9245 20.2475 20.7853 20.4237C20.6461 20.5999 20.4516 20.724 20.2332 20.776C16.8462 21.582 12.0112 20.253 7.87816 16.121C3.74416 11.99 2.41816 7.155 3.22416 3.767C3.27617 3.54839 3.40043 3.35374 3.57683 3.21454C3.75324 3.07534 3.97145 2.99975 4.19616 3H9.46616C9.94116 3 10.3512 3.336 10.4452 3.803L11.3232 8.193C11.3553 8.35405 11.3472 8.52054 11.2996 8.67771C11.252 8.83488 11.1663 8.97787 11.0502 9.094L9.81716 10.326C10.3949 11.335 11.1367 12.2408 12.0122 13.006C12.212 13.1797 12.3346 13.4257 12.3531 13.6898C12.3716 13.954 12.2844 14.2147 12.1107 14.4145C12.0246 14.5134 11.92 14.5945 11.8026 14.653C11.6853 14.7115 11.5576 14.7463 11.4268 14.7555C11.1627 14.7739 10.902 14.6867 10.7022 14.513C10.4853 14.3245 10.2751 14.1284 10.0722 13.925C9.10311 12.9493 8.29957 11.8222 7.69316 10.588C7.60008 10.4008 7.56816 10.1891 7.60189 9.98271C7.63562 9.77637 7.73331 9.58583 7.88116 9.438L9.26016 8.06L8.64716 4.997H5.03616C4.74416 7.687 5.97816 11.4 9.28916 14.709C12.6012 18.019 16.3142 19.255 19.0032 18.964V15.356L15.9382 14.743ZM14.0112 8.921V3.998C14.0112 3.73318 14.1164 3.47921 14.3036 3.29195C14.4909 3.1047 14.7448 2.9995 15.0097 2.9995C15.2745 2.9995 15.5284 3.1047 15.7157 3.29195C15.903 3.47921 16.0082 3.73318 16.0082 3.998V6.58L19.2962 3.292C19.4834 3.10475 19.7374 2.99956 20.0022 2.99956C20.267 2.99956 20.5209 3.10475 20.7082 3.292C20.8954 3.47924 21.0006 3.73319 21.0006 3.998C21.0006 4.2628 20.8954 4.51675 20.7082 4.704L17.4202 7.992H20.0022C20.267 7.992 20.5209 8.0972 20.7082 8.28445C20.8955 8.47171 21.0007 8.72568 21.0007 8.9905C21.0007 9.25532 20.8955 9.50929 20.7082 9.69654C20.5209 9.8838 20.267 9.989 20.0022 9.989H15.0092C14.8721 9.98904 14.7365 9.9609 14.6107 9.90633C14.485 9.85175 14.3718 9.77191 14.2782 9.67175C14.1846 9.5716 14.1126 9.45327 14.0667 9.32412C14.0207 9.19497 14.0018 9.05776 14.0112 8.921Z" fill="#F1971E"/>
</svg>
