<svg width="24" height="24" viewBox="0 0 24 24" fill="none" xmlns="http://www.w3.org/2000/svg">
<path d="M11 11V8C11 7.73478 11.1054 7.48043 11.2929 7.29289C11.4804 7.10536 11.7348 7 12 7C12.2652 7 12.5196 7.10536 12.7071 7.29289C12.8946 7.48043 13 7.73478 13 8V16C13 16.2652 12.8946 16.5196 12.7071 16.7071C12.5196 16.8946 12.2652 17 12 17C11.7348 17 11.4804 16.8946 11.2929 16.7071C11.1054 16.5196 11 16.2652 11 16V13H8C7.73478 13 7.48043 12.8946 7.29289 12.7071C7.10536 12.5196 7 12.2652 7 12C7 11.7348 7.10536 11.4804 7.29289 11.2929C7.48043 11.1054 7.73478 11 8 11H11ZM12 4C11.7348 4 11.4804 3.89464 11.2929 3.70711C11.1054 3.51957 11 3.26522 11 3C11 2.73478 11.1054 2.48043 11.2929 2.29289C11.4804 2.10536 11.7348 2 12 2C17.523 2 22 6.477 22 12C22 17.523 17.523 22 12 22C6.477 22 2 17.523 2 12C1.99936 10.1938 2.48809 8.4211 3.41426 6.87039C4.34042 5.31968 5.66941 4.04887 7.26 3.193C7.49339 3.06702 7.76727 3.03892 8.02138 3.11487C8.27549 3.19082 8.48902 3.36461 8.615 3.598C8.74098 3.83139 8.76908 4.10527 8.69313 4.35938C8.61718 4.61349 8.44339 4.82702 8.21 4.953C6.49121 5.87662 5.16922 7.39656 4.49283 9.22681C3.81644 11.0571 3.83227 13.0714 4.53735 14.8908C5.24244 16.7102 6.58815 18.2092 8.32125 19.1057C10.0544 20.0021 12.0553 20.2343 13.9477 19.7585C15.84 19.2827 17.4932 18.1316 18.5961 16.522C19.6991 14.9124 20.1757 12.9552 19.9364 11.0187C19.697 9.0822 18.7582 7.29994 17.2966 6.0073C15.8349 4.71466 13.9512 4.00078 12 4ZM15 13C14.7348 13 14.4804 12.8946 14.2929 12.7071C14.1054 12.5196 14 12.2652 14 12C14 11.7348 14.1054 11.4804 14.2929 11.2929C14.4804 11.1054 14.7348 11 15 11H16C16.2652 11 16.5196 11.1054 16.7071 11.2929C16.8946 11.4804 17 11.7348 17 12C17 12.2652 16.8946 12.5196 16.7071 12.7071C16.5196 12.8946 16.2652 13 16 13H15Z" fill="#219653"/>
</svg>
