<svg width="16" height="15" viewBox="0 0 16 15" fill="none" xmlns="http://www.w3.org/2000/svg">
<path d="M7.25 6.75V4.5C7.25 4.30109 7.32902 4.11032 7.46967 3.96967C7.61032 3.82902 7.80109 3.75 8 3.75C8.19891 3.75 8.38968 3.82902 8.53033 3.96967C8.67098 4.11032 8.75 4.30109 8.75 4.5V10.5C8.75 10.6989 8.67098 10.8897 8.53033 11.0303C8.38968 11.171 8.19891 11.25 8 11.25C7.80109 11.25 7.61032 11.171 7.46967 11.0303C7.32902 10.8897 7.25 10.6989 7.25 10.5V8.25H5C4.80109 8.25 4.61032 8.17098 4.46967 8.03033C4.32902 7.88968 4.25 7.69891 4.25 7.5C4.25 7.30109 4.32902 7.11032 4.46967 6.96967C4.61032 6.82902 4.80109 6.75 5 6.75H7.25ZM8 1.5C7.80109 1.5 7.61032 1.42098 7.46967 1.28033C7.32902 1.13968 7.25 0.948912 7.25 0.75C7.25 0.551088 7.32902 0.360322 7.46967 0.21967C7.61032 0.0790176 7.80109 0 8 0C12.1423 0 15.5 3.35775 15.5 7.5C15.5 11.6422 12.1423 15 8 15C3.85775 15 0.5 11.6422 0.5 7.5C0.49952 6.14532 0.866069 4.81583 1.56069 3.6528C2.25532 2.48976 3.25206 1.53665 4.445 0.89475C4.62004 0.800267 4.82545 0.779189 5.01603 0.836153C5.20662 0.893117 5.36677 1.02346 5.46125 1.1985C5.55573 1.37354 5.57681 1.57895 5.51985 1.76953C5.46288 1.96012 5.33254 2.12027 5.1575 2.21475C3.8684 2.90746 2.87692 4.04742 2.36962 5.42011C1.86233 6.7928 1.87421 8.30356 2.40302 9.66811C2.93183 11.0326 3.94111 12.1569 5.24094 12.8292C6.54076 13.5016 8.04151 13.6757 9.46076 13.3189C10.88 12.962 12.1199 12.0987 12.9471 10.8915C13.7743 9.68431 14.1318 8.2164 13.9523 6.76403C13.7728 5.31165 13.0687 3.97495 11.9724 3.00547C10.8762 2.036 9.46343 1.50059 8 1.5ZM10.25 8.25C10.0511 8.25 9.86032 8.17098 9.71967 8.03033C9.57902 7.88968 9.5 7.69891 9.5 7.5C9.5 7.30109 9.57902 7.11032 9.71967 6.96967C9.86032 6.82902 10.0511 6.75 10.25 6.75H11C11.1989 6.75 11.3897 6.82902 11.5303 6.96967C11.671 7.11032 11.75 7.30109 11.75 7.5C11.75 7.69891 11.671 7.88968 11.5303 8.03033C11.3897 8.17098 11.1989 8.25 11 8.25H10.25Z" fill="#F1971E"/>
</svg>
