<svg width="24" height="24" viewBox="0 0 24 24" fill="none" xmlns="http://www.w3.org/2000/svg">
<path d="M4.41379 12L6.34379 13.929C6.53097 14.1167 6.636 14.3709 6.63579 14.636V18.364C6.63579 18.6292 6.53043 18.8836 6.34289 19.0711C6.15536 19.2586 5.901 19.364 5.63579 19.364C5.37057 19.364 5.11622 19.2586 4.92868 19.0711C4.74114 18.8836 4.63579 18.6292 4.63579 18.364V15.05L2.29279 12.707C2.10532 12.5195 2 12.2652 2 12C2 11.7348 2.10532 11.4805 2.29279 11.293L4.63579 8.95V5.636C4.63579 5.37078 4.74114 5.11643 4.92868 4.92889C5.11622 4.74136 5.37057 4.636 5.63579 4.636H8.94979L11.2928 2.293C11.4803 2.10553 11.7346 2.00021 11.9998 2.00021C12.265 2.00021 12.5193 2.10553 12.7068 2.293L15.0498 4.636H18.3638C18.629 4.636 18.8834 4.74136 19.0709 4.92889C19.2584 5.11643 19.3638 5.37078 19.3638 5.636V8.95L21.7068 11.293C21.8943 11.4805 21.9996 11.7348 21.9996 12C21.9996 12.2652 21.8943 12.5195 21.7068 12.707L19.3638 15.05V18.364C19.3638 18.6292 19.2584 18.8836 19.0709 19.0711C18.8834 19.2586 18.629 19.364 18.3638 19.364H15.0498L12.7068 21.707C12.5193 21.8945 12.265 21.9998 11.9998 21.9998C11.7346 21.9998 11.4803 21.8945 11.2928 21.707L8.65679 19.071C8.47463 18.8824 8.37383 18.6298 8.37611 18.3676C8.37839 18.1054 8.48356 17.8546 8.66897 17.6692C8.85438 17.4838 9.10519 17.3786 9.36738 17.3763C9.62958 17.374 9.88218 17.4748 10.0708 17.657L11.9998 19.586L13.9288 17.656C14.1164 17.4688 14.3707 17.3638 14.6358 17.364H17.3638V14.636C17.3638 14.3708 17.4692 14.1165 17.6568 13.929L19.5858 12L17.6558 10.071C17.4686 9.88334 17.3636 9.62905 17.3638 9.364V6.636H14.6358C14.3706 6.63594 14.1163 6.53055 13.9288 6.343L11.9998 4.414L10.0708 6.344C9.88313 6.53118 9.62884 6.63621 9.36379 6.636H6.63579V9.364C6.63573 9.6292 6.53034 9.88351 6.34279 10.071L4.41379 12ZM10.7068 14.707C10.6145 14.8025 10.5042 14.8787 10.3822 14.9311C10.2602 14.9835 10.129 15.0111 9.99619 15.0123C9.86341 15.0134 9.73173 14.9881 9.60883 14.9378C9.48594 14.8875 9.37428 14.8133 9.28039 14.7194C9.1865 14.6255 9.11225 14.5139 9.06196 14.391C9.01168 14.2681 8.98638 14.1364 8.98754 14.0036C8.98869 13.8708 9.01628 13.7396 9.06868 13.6176C9.12109 13.4956 9.19728 13.3852 9.29279 13.293L13.2928 9.293C13.4814 9.11084 13.734 9.01005 13.9962 9.01233C14.2584 9.0146 14.5092 9.11977 14.6946 9.30518C14.88 9.49059 14.9852 9.7414 14.9875 10.0036C14.9897 10.2658 14.8889 10.5184 14.7068 10.707L10.7068 14.707ZM9.49979 10.5C9.23457 10.5 8.98022 10.3946 8.79268 10.2071C8.60514 10.0196 8.49979 9.76522 8.49979 9.5C8.49979 9.23478 8.60514 8.98043 8.79268 8.79289C8.98022 8.60536 9.23457 8.5 9.49979 8.5C9.765 8.5 10.0194 8.60536 10.2069 8.79289C10.3944 8.98043 10.4998 9.23478 10.4998 9.5C10.4998 9.76522 10.3944 10.0196 10.2069 10.2071C10.0194 10.3946 9.765 10.5 9.49979 10.5ZM14.4998 15.5C14.2346 15.5 13.9802 15.3946 13.7927 15.2071C13.6051 15.0196 13.4998 14.7652 13.4998 14.5C13.4998 14.2348 13.6051 13.9804 13.7927 13.7929C13.9802 13.6054 14.2346 13.5 14.4998 13.5C14.765 13.5 15.0194 13.6054 15.2069 13.7929C15.3944 13.9804 15.4998 14.2348 15.4998 14.5C15.4998 14.7652 15.3944 15.0196 15.2069 15.2071C15.0194 15.3946 14.765 15.5 14.4998 15.5Z" fill="url(#paint0_linear)"/>
<defs>
<linearGradient id="paint0_linear" x1="2" y1="21.9998" x2="23.373" y2="20.4049" gradientUnits="userSpaceOnUse">
<stop offset="0.0297586" stop-color="#F7BB11"/>
<stop offset="1" stop-color="#F1971E"/>
</linearGradient>
</defs>
</svg>
