<svg width="24" height="24" viewBox="0 0 24 24" fill="none" xmlns="http://www.w3.org/2000/svg">
<path d="M16.4639 15.05L20.7069 19.293C20.889 19.4816 20.9898 19.7342 20.9875 19.9964C20.9853 20.2586 20.8801 20.5094 20.6947 20.6948C20.5093 20.8802 20.2585 20.9854 19.9963 20.9877C19.7341 20.9899 19.4815 20.8891 19.2929 20.707L14.3889 15.803C14.2014 15.6155 14.0961 15.3612 14.0961 15.096C14.0961 14.8308 14.2014 14.5765 14.3889 14.389C15.3342 13.4434 15.9027 12.1858 15.988 10.8515C16.0734 9.5171 15.6697 8.19735 14.8525 7.13904C14.0354 6.08073 12.8606 5.35634 11.5481 5.10136C10.2355 4.84638 8.87506 5.07827 7.72109 5.75366C6.56712 6.42905 5.6987 7.50168 5.27825 8.77094C4.8578 10.0402 4.91412 11.4192 5.43667 12.6499C5.95922 13.8807 6.91222 14.8789 8.11742 15.4579C9.32262 16.037 10.6975 16.1572 11.9849 15.796C12.1113 15.7605 12.2435 15.7503 12.3739 15.766C12.5044 15.7816 12.6304 15.8228 12.7449 15.8871C12.8594 15.9515 12.9601 16.0377 13.0412 16.141C13.1224 16.2443 13.1824 16.3625 13.2179 16.489C13.2533 16.6155 13.2635 16.7477 13.2479 16.8781C13.2323 17.0085 13.1911 17.1345 13.1267 17.249C13.0624 17.3635 12.9761 17.4642 12.8728 17.5454C12.7696 17.6265 12.6513 17.6865 12.5249 17.722C10.8107 18.2019 8.98168 18.0564 7.36489 17.3116C5.74809 16.5668 4.44892 15.2712 3.69966 13.6565C2.9504 12.0418 2.79991 10.2132 3.27508 8.49766C3.75025 6.78216 4.82011 5.29159 6.29337 4.29246C7.76663 3.29333 9.54724 2.8508 11.3168 3.04397C13.0864 3.23714 14.7296 4.05344 15.9526 5.34689C17.1756 6.64035 17.8987 8.32664 17.9925 10.1043C18.0864 11.8819 17.5449 13.6349 16.4649 15.05H16.4639Z" fill="#333333"/>
</svg>
