<svg width="24" height="24" viewBox="0 0 24 24" fill="none" xmlns="http://www.w3.org/2000/svg">
<path d="M9.31773 5.70699C9.13557 5.51839 9.03478 5.26578 9.03706 5.00359C9.03934 4.74139 9.14451 4.49058 9.32991 4.30517C9.51532 4.11976 9.76613 4.01459 10.0283 4.01231C10.2905 4.01003 10.5431 4.11083 10.7317 4.29299L17.7317 11.293C18.6729 12.2342 17.1908 13.5803 16.3176 12.7071C13.9843 10.3738 11.6511 8.04032 9.31773 5.70699ZM13.8607 14.253C13.958 14.1606 14.0728 14.0888 14.1983 14.0417C14.3239 13.9946 14.4577 13.9732 14.5917 13.9789C14.7256 13.9846 14.8571 14.0171 14.9783 14.0746C15.0994 14.1321 15.2078 14.2134 15.2969 14.3136C15.386 14.4139 15.454 14.531 15.4969 14.6581C15.5398 14.7851 15.5567 14.9195 15.5466 15.0532C15.5365 15.187 15.4997 15.3173 15.4382 15.4365C15.3767 15.5557 15.2919 15.6613 15.1887 15.747L10.6887 19.747C10.5915 19.8394 10.4767 19.9112 10.3511 19.9583C10.2256 20.0054 10.0918 20.0267 9.95781 20.0211C9.82382 20.0154 9.69234 19.9829 9.57118 19.9254C9.45003 19.8679 9.34169 19.7866 9.25259 19.6863C9.16349 19.5861 9.09547 19.469 9.05256 19.3419C9.00966 19.2149 8.99274 19.0805 9.00283 18.9467C9.01292 18.813 9.04981 18.6827 9.11129 18.5635C9.17278 18.4443 9.25761 18.3387 9.36073 18.253L13.8607 14.253Z" fill="#F1971E"/>
</svg>
