<svg width="24" height="24" viewBox="0 0 24 24" fill="none" xmlns="http://www.w3.org/2000/svg">
<path d="M14.6823 5.70699C14.8644 5.51839 14.9652 5.26578 14.9629 5.00359C14.9607 4.74139 14.8555 4.49058 14.6701 4.30517C14.4847 4.11976 14.2339 4.01459 13.9717 4.01231C13.7095 4.01003 13.4569 4.11083 13.2683 4.29299L6.26827 11.293C5.32709 12.2342 6.80921 13.5803 7.68237 12.7071C10.0157 10.3738 12.3489 8.04032 14.6823 5.70699ZM10.1393 14.253C10.042 14.1606 9.92722 14.0888 9.80166 14.0417C9.67609 13.9946 9.54233 13.9732 9.40834 13.9789C9.27435 13.9846 9.14287 14.0171 9.02172 14.0746C8.90057 14.1321 8.79222 14.2134 8.70313 14.3136C8.61403 14.4139 8.54601 14.531 8.5031 14.6581C8.46019 14.7851 8.44328 14.9195 8.45337 15.0532C8.46346 15.187 8.50034 15.3173 8.56183 15.4365C8.62331 15.5557 8.70814 15.6613 8.81127 15.747L13.3113 19.747C13.4085 19.8394 13.5233 19.9112 13.6489 19.9583C13.7744 20.0054 13.9082 20.0267 14.0422 20.0211C14.1762 20.0154 14.3077 19.9829 14.4288 19.9254C14.55 19.8679 14.6583 19.7866 14.7474 19.6863C14.8365 19.5861 14.9045 19.469 14.9474 19.3419C14.9903 19.2149 15.0073 19.0805 14.9972 18.9467C14.9871 18.813 14.9502 18.6827 14.8887 18.5635C14.8272 18.4443 14.7424 18.3387 14.6393 18.253L10.1393 14.253Z" fill="#F1971E"/>
</svg>
