<svg width="16" height="19" viewBox="0 0 16 19" fill="none" xmlns="http://www.w3.org/2000/svg">
<path d="M9.00048 4.41404V18C9.00048 18.2653 8.89512 18.5196 8.70759 18.7071C8.52005 18.8947 8.2657 19 8.00048 19C7.73526 19 7.48091 18.8947 7.29337 18.7071C7.10584 18.5196 7.00048 18.2653 7.00048 18V2.00004C7.00048 1.11004 8.07748 0.663039 8.70748 1.29304L15.7075 8.29304C15.8896 8.48164 15.9904 8.73424 15.9882 8.99644C15.9859 9.25864 15.8807 9.50945 15.6953 9.69486C15.5099 9.88027 15.2591 9.98543 14.9969 9.98771C14.7347 9.98999 14.4821 9.8892 14.2935 9.70704L9.00048 4.41404ZM4.25348 3.83604C4.33921 3.73291 4.44481 3.64808 4.56399 3.5866C4.68317 3.52511 4.8135 3.48823 4.94723 3.47814C5.08096 3.46805 5.21535 3.48496 5.34241 3.52787C5.46946 3.57078 5.58659 3.6388 5.68683 3.7279C5.78706 3.81699 5.86835 3.92534 5.92586 4.04649C5.98336 4.16764 6.01591 4.29912 6.02157 4.43311C6.02723 4.5671 6.00588 4.70086 5.95879 4.82643C5.91171 4.95199 5.83984 5.06681 5.74748 5.16404L1.74748 9.66404C1.56876 9.85217 1.32391 9.96347 1.06466 9.97442C0.805402 9.98536 0.552042 9.89511 0.358099 9.72272C0.164156 9.55032 0.044819 9.30929 0.025297 9.05054C0.00577499 8.79179 0.0875968 8.53558 0.253478 8.33604L4.25348 3.83604Z" fill="#F1971E"/>
</svg>
