<svg width="40" height="40" viewBox="0 0 40 40" fill="none" xmlns="http://www.w3.org/2000/svg">
<circle cx="20" cy="20" r="20" fill="#F1971E"/>
<path d="M18.2804 21.924L14.6314 20.48C14.391 20.385 14.1968 20.2006 14.0894 19.9655C13.982 19.7304 13.9698 19.4629 14.0554 19.219L15.8434 14.124C15.9313 13.8738 16.115 13.6687 16.3542 13.5539C16.5933 13.4392 16.8682 13.4241 17.1184 13.512C17.3686 13.5999 17.5737 13.7836 17.6885 14.0228C17.8032 14.2619 17.8183 14.5368 17.7304 14.787L16.2604 18.974L19.9134 20.42C20.1544 20.5156 20.3488 20.701 20.4557 20.9372C20.5626 21.1734 20.5736 21.4419 20.4864 21.686L19.5744 24.246L23.3284 19.864L20.0854 18.58C19.9528 18.5275 19.833 18.4472 19.7339 18.3446C19.6349 18.242 19.559 18.1193 19.5112 17.9849C19.4635 17.8505 19.4451 17.7075 19.4572 17.5654C19.4693 17.4233 19.5116 17.2854 19.5814 17.161L22.4754 12H18.0004C17.7352 12 17.4808 11.8946 17.2933 11.7071C17.1058 11.5196 17.0004 11.2652 17.0004 11C17.0004 10.7348 17.1058 10.4804 17.2933 10.2929C17.4808 10.1054 17.7352 10 18.0004 10H24.1824C24.3568 10 24.5282 10.0457 24.6796 10.1325C24.8309 10.2193 24.9569 10.3441 25.045 10.4947C25.1332 10.6452 25.1804 10.8161 25.1821 10.9906C25.1837 11.165 25.1397 11.3368 25.0544 11.489L21.8864 17.14L25.3684 18.52C25.5164 18.5787 25.6482 18.6718 25.753 18.7917C25.8577 18.9117 25.9323 19.0548 25.9705 19.2094C26.0088 19.3639 26.0096 19.5254 25.9728 19.6803C25.9361 19.8352 25.8629 19.9791 25.7594 20.1L17.5784 29.65C16.8564 30.492 15.5044 29.708 15.8764 28.663L18.2794 21.923L18.2804 21.924Z" fill="white"/>
</svg>
