<svg width="16" height="14" viewBox="0 0 16 14" fill="none" xmlns="http://www.w3.org/2000/svg">
<path d="M2.53271 12.25H11.0002C11.1991 12.25 11.3899 12.329 11.5305 12.4697C11.6712 12.6103 11.7502 12.8011 11.7502 13C11.7502 13.1989 11.6712 13.3897 11.5305 13.5303C11.3899 13.671 11.1991 13.75 11.0002 13.75H1.25021C1.11927 13.75 0.990603 13.7158 0.877006 13.6507C0.763408 13.5856 0.668839 13.4918 0.602702 13.3788C0.536566 13.2658 0.501168 13.1375 0.500028 13.0065C0.498889 12.8756 0.532048 12.7466 0.596208 12.6325L7.34621 0.632497C7.4114 0.516357 7.50635 0.419673 7.62129 0.352383C7.73623 0.285094 7.86702 0.249626 8.00021 0.249626C8.1334 0.249626 8.26418 0.285094 8.37912 0.352383C8.49406 0.419673 8.58901 0.516357 8.65421 0.632497L15.4042 12.6325C15.5017 12.8059 15.5262 13.011 15.4725 13.2026C15.4188 13.3942 15.2912 13.5565 15.1177 13.654C14.9443 13.7515 14.7392 13.776 14.5476 13.7223C14.3561 13.6686 14.1937 13.5409 14.0962 13.3675L8.00021 2.53L2.53271 12.25ZM7.25021 6.25C7.25021 6.05108 7.32923 5.86032 7.46988 5.71967C7.61053 5.57901 7.8013 5.5 8.00021 5.5C8.19912 5.5 8.38989 5.57901 8.53054 5.71967C8.67119 5.86032 8.75021 6.05108 8.75021 6.25V8.5C8.75021 8.69891 8.67119 8.88967 8.53054 9.03033C8.38989 9.17098 8.19912 9.25 8.00021 9.25C7.8013 9.25 7.61053 9.17098 7.46988 9.03033C7.32923 8.88967 7.25021 8.69891 7.25021 8.5V6.25ZM8.00021 11.5C7.8013 11.5 7.61053 11.421 7.46988 11.2803C7.32923 11.1397 7.25021 10.9489 7.25021 10.75C7.25021 10.5511 7.32923 10.3603 7.46988 10.2197C7.61053 10.079 7.8013 10 8.00021 10C8.19912 10 8.38989 10.079 8.53054 10.2197C8.67119 10.3603 8.75021 10.5511 8.75021 10.75C8.75021 10.9489 8.67119 11.1397 8.53054 11.2803C8.38989 11.421 8.19912 11.5 8.00021 11.5Z" fill="url(#paint0_linear)"/>
<defs>
<linearGradient id="paint0_linear" x1="0.5" y1="13.7502" x2="16.5097" y2="12.4228" gradientUnits="userSpaceOnUse">
<stop offset="0.0297586" stop-color="#F7BB11"/>
<stop offset="1" stop-color="#F1971E"/>
</linearGradient>
</defs>
</svg>
