<svg width="24" height="24" viewBox="0 0 24 24"  xmlns="http://www.w3.org/2000/svg">
<path d="M17.586 11L12.293 5.70702C12.1975 5.61477 12.1213 5.50443 12.0689 5.38242C12.0165 5.26042 11.9889 5.1292 11.9877 4.99642C11.9866 4.86364 12.0119 4.73196 12.0622 4.60907C12.1125 4.48617 12.1867 4.37452 12.2806 4.28062C12.3745 4.18673 12.4861 4.11248 12.609 4.0622C12.7319 4.01192 12.8636 3.98662 12.9964 3.98777C13.1292 3.98892 13.2604 4.01651 13.3824 4.06892C13.5044 4.12133 13.6148 4.19751 13.707 4.29302L20.707 11.293C21.337 11.923 20.891 13 20 13H4C3.73478 13 3.48043 12.8947 3.29289 12.7071C3.10536 12.5196 3 12.2652 3 12C3 11.7348 3.10536 11.4804 3.29289 11.2929C3.48043 11.1054 3.73478 11 4 11H17.586ZM16.836 14.253C16.9332 14.1607 17.048 14.0888 17.1736 14.0417C17.2992 13.9946 17.4329 13.9733 17.5669 13.9789C17.7009 13.9846 17.8324 14.0171 17.9535 14.0746C18.0747 14.1322 18.183 14.2134 18.2721 14.3137C18.3612 14.4139 18.4293 14.531 18.4722 14.6581C18.5151 14.7852 18.532 14.9195 18.5219 15.0533C18.5118 15.187 18.4749 15.3173 18.4134 15.4365C18.352 15.5557 18.2671 15.6613 18.164 15.747L13.664 19.747C13.5668 19.8394 13.452 19.9112 13.3264 19.9583C13.2008 20.0054 13.0671 20.0268 12.9331 20.0211C12.7991 20.0155 12.6676 19.9829 12.5465 19.9254C12.4253 19.8679 12.317 19.7866 12.2279 19.6864C12.1388 19.5861 12.0707 19.469 12.0278 19.3419C11.9849 19.2149 11.968 19.0805 11.9781 18.9468C11.9882 18.813 12.0251 18.6827 12.0866 18.5635C12.148 18.4443 12.2329 18.3388 12.336 18.253L16.836 14.253Z" />
<defs>
<linearGradient id="paint0_linear" x1="3" y1="20.022" x2="22.2105" y2="18.4126" gradientUnits="userSpaceOnUse">
<stop offset="0.0297586" stop-color="#F7BB11"/>
<stop offset="1" stop-color="#F1971E"/>
</linearGradient>
</defs>
</svg>
