<svg viewBox="0 0 24 24">
<path d="M12 4C11.7348 4 11.4804 3.89464 11.2929 3.70711C11.1054 3.51957 11 3.26522 11 3C11 2.73478 11.1054 2.48043 11.2929 2.29289C11.4804 2.10536 11.7348 2 12 2C17.523 2 22 6.477 22 12C22 17.523 17.523 22 12 22C6.477 22 2 17.523 2 12C1.99936 10.1938 2.48809 8.4211 3.41426 6.87039C4.34042 5.31968 5.66941 4.04887 7.26 3.193C7.49339 3.06702 7.76727 3.03892 8.02138 3.11487C8.27549 3.19082 8.48902 3.36461 8.615 3.598C8.74098 3.83139 8.76908 4.10527 8.69313 4.35938C8.61718 4.61349 8.44339 4.82702 8.21 4.953C6.49121 5.87662 5.16922 7.39656 4.49283 9.22681C3.81644 11.0571 3.83227 13.0714 4.53735 14.8908C5.24244 16.7102 6.58815 18.2092 8.32125 19.1057C10.0544 20.0021 12.0553 20.2343 13.9477 19.7585C15.84 19.2827 17.4932 18.1316 18.5961 16.522C19.6991 14.9124 20.1757 12.9552 19.9364 11.0187C19.697 9.0822 18.7582 7.29994 17.2966 6.0073C15.8349 4.71466 13.9512 4.00078 12 4ZM8 10C7.73478 10 7.48043 9.89464 7.29289 9.70711C7.10536 9.51957 7 9.26522 7 9C7 8.73478 7.10536 8.48043 7.29289 8.29289C7.48043 8.10536 7.73478 8 8 8H16C16.2652 8 16.5196 8.10536 16.7071 8.29289C16.8946 8.48043 17 8.73478 17 9C17 9.26522 16.8946 9.51957 16.7071 9.70711C16.5196 9.89464 16.2652 10 16 10H8ZM8 13C7.73478 13 7.48043 12.8946 7.29289 12.7071C7.10536 12.5196 7 12.2652 7 12C7 11.7348 7.10536 11.4804 7.29289 11.2929C7.48043 11.1054 7.73478 11 8 11H16C16.2652 11 16.5196 11.1054 16.7071 11.2929C16.8946 11.4804 17 11.7348 17 12C17 12.2652 16.8946 12.5196 16.7071 12.7071C16.5196 12.8946 16.2652 13 16 13H8ZM8 16C7.73478 16 7.48043 15.8946 7.29289 15.7071C7.10536 15.5196 7 15.2652 7 15C7 14.7348 7.10536 14.4804 7.29289 14.2929C7.48043 14.1054 7.73478 14 8 14H13C13.2652 14 13.5196 14.1054 13.7071 14.2929C13.8946 14.4804 14 14.7348 14 15C14 15.2652 13.8946 15.5196 13.7071 15.7071C13.5196 15.8946 13.2652 16 13 16H8Z"/>
</svg>
