<svg width="15" height="16" viewBox="0 0 15 16" xmlns="http://www.w3.org/2000/svg">
<path d="M13.0417 6.41667H4.33333C4.12337 6.41667 3.92201 6.33326 3.77354 6.18479C3.62507 6.03633 3.54167 5.83496 3.54167 5.625C3.54167 5.41504 3.62507 5.21367 3.77354 5.06521C3.92201 4.91674 4.12337 4.83333 4.33333 4.83333H13.8333C14.0433 4.83333 14.2447 4.91674 14.3931 5.06521C14.5416 5.21367 14.625 5.41504 14.625 5.625V14.3333C14.625 14.5433 14.5416 14.7447 14.3931 14.8931C14.2447 15.0416 14.0433 15.125 13.8333 15.125H1.16667C0.956704 15.125 0.75534 15.0416 0.606874 14.8931C0.458407 14.7447 0.375 14.5433 0.375 14.3333V1.66667C0.375 1.4567 0.458407 1.25534 0.606874 1.10687C0.75534 0.958407 0.956704 0.875 1.16667 0.875H7.5C7.70995 0.875045 7.91128 0.958482 8.05971 1.10696L9.64304 2.69029C9.71865 2.76332 9.77896 2.85068 9.82046 2.94726C9.86195 3.04385 9.88379 3.14773 9.8847 3.25285C9.88561 3.35797 9.86558 3.46221 9.82578 3.55951C9.78597 3.6568 9.72719 3.74519 9.65285 3.81952C9.57852 3.89385 9.49013 3.95264 9.39284 3.99244C9.29555 4.03225 9.1913 4.05228 9.08618 4.05136C8.98107 4.05045 8.87718 4.02861 8.7806 3.98712C8.68401 3.94563 8.59665 3.88532 8.52363 3.80971L7.17225 2.45833H1.95833V13.5417H13.0417V6.41667Z"/>
</svg>
