<svg width="24" height="24" viewBox="0 0 24 24" xmlns="http://www.w3.org/2000/svg">
<path d="M19 10H8C7.73478 10 7.48043 9.89464 7.29289 9.70711C7.10536 9.51957 7 9.26522 7 9C7 8.73478 7.10536 8.48043 7.29289 8.29289C7.48043 8.10536 7.73478 8 8 8H20C20.2652 8 20.5196 8.10536 20.7071 8.29289C20.8946 8.48043 21 8.73478 21 9V20C21 20.2652 20.8946 20.5196 20.7071 20.7071C20.5196 20.8946 20.2652 21 20 21H4C3.73478 21 3.48043 20.8946 3.29289 20.7071C3.10536 20.5196 3 20.2652 3 20V4C3 3.73478 3.10536 3.48043 3.29289 3.29289C3.48043 3.10536 3.73478 3 4 3H12C12.2652 3.00006 12.5195 3.10545 12.707 3.293L14.707 5.293C14.8025 5.38525 14.8787 5.49559 14.9311 5.6176C14.9835 5.7396 15.0111 5.87082 15.0123 6.0036C15.0134 6.13638 14.9881 6.26806 14.9378 6.39095C14.8875 6.51385 14.8133 6.6255 14.7194 6.7194C14.6255 6.81329 14.5139 6.88754 14.391 6.93782C14.2681 6.9881 14.1364 7.0134 14.0036 7.01225C13.8708 7.0111 13.7396 6.98351 13.6176 6.9311C13.4956 6.87869 13.3852 6.80251 13.293 6.707L11.586 5H5V19H19V10Z"/>
</svg>
