<svg width="18" height="19" viewBox="0 0 18 19" fill="none" xmlns="http://www.w3.org/2000/svg">
<path d="M13.3035 5C12.156 4.073 10.5727 3.5 9 3.5C7.81331 3.5 6.65327 3.85189 5.66658 4.51118C4.67988 5.17047 3.91085 6.10754 3.45672 7.2039C3.0026 8.30026 2.88378 9.50666 3.11529 10.6705C3.3468 11.8344 3.91824 12.9035 4.75736 13.7426C5.59647 14.5818 6.66557 15.1532 7.82946 15.3847C8.99334 15.6162 10.1997 15.4974 11.2961 15.0433C12.3925 14.5892 13.3295 13.8201 13.9888 12.8334C14.6481 11.8467 15 10.6867 15 9.5C15 9.30109 15.079 9.11032 15.2197 8.96967C15.3603 8.82902 15.5511 8.75 15.75 8.75C15.9489 8.75 16.1397 8.82902 16.2803 8.96967C16.421 9.11032 16.5 9.30109 16.5 9.5C16.5 13.6422 13.1422 17 9 17C4.85775 17 1.5 13.6422 1.5 9.5C1.5 5.35775 4.85775 2 9 2C10.9118 2 12.8302 2.687 14.25 3.83675V2.75C14.25 2.55109 14.329 2.36032 14.4697 2.21967C14.6103 2.07902 14.8011 2 15 2C15.1989 2 15.3897 2.07902 15.5303 2.21967C15.671 2.36032 15.75 2.55109 15.75 2.75V5.75C15.75 5.94891 15.671 6.13968 15.5303 6.28033C15.3897 6.42098 15.1989 6.5 15 6.5H12C11.8011 6.5 11.6103 6.42098 11.4697 6.28033C11.329 6.13968 11.25 5.94891 11.25 5.75C11.25 5.55109 11.329 5.36032 11.4697 5.21967C11.6103 5.07902 11.8011 5 12 5H13.3035Z" fill="#F1971E"/>
</svg>
